<?xml version="1.0" encoding="utf-8"?>
<!-- Generator: Adobe Illustrator 16.0.0, SVG Export Plug-In . SVG Version: 6.00 Build 0)  -->
<!DOCTYPE svg PUBLIC "-//W3C//DTD SVG 1.1//EN" "http://www.w3.org/Graphics/SVG/1.1/DTD/svg11.dtd">
<svg version="1.1" xmlns="http://www.w3.org/2000/svg" xmlns:xlink="http://www.w3.org/1999/xlink" x="0px" y="0px"
	 width="841.89px" height="595.28px" viewBox="0 0 841.89 595.28" enable-background="new 0 0 841.89 595.28" xml:space="preserve">
<g id="Ebene_1" display="none">
</g>
<g id="Ebene_2" display="none">
	<path display="inline" fill-rule="evenodd" clip-rule="evenodd" d="M330.178,237.25c-0.561-3.338-3.101-6.916-4.434-9.492
		c-0.015-0.036-0.026-0.068-0.042-0.104c-0.005-0.011-0.028-0.043-0.041-0.064c-0.699-1.329-1.478-2.563-2.333-3.685
		c-0.958-1.254-1.988-2.399-3.075-3.46c-0.002-0.007-0.012-0.024-0.012-0.03c-0.005,0.001-0.009,0.002-0.015,0.004
		c-2.52-2.454-5.377-4.4-8.59-5.817c-4.61-2.029-10.648-4.087-18.111-6.175c-6.479-1.753-11.609-3.401-15.396-4.94
		c-3.787-1.536-6.943-3.787-9.468-6.75c-2.527-2.964-3.787-6.859-3.787-11.691c0-6.366,2.305-11.387,6.915-15.066
		c4.61-3.677,10.374-5.517,17.29-5.517c7.463,0,13.391,1.84,17.783,5.517c4.389,3.679,6.969,7.878,7.739,12.596h12.514
		c-0.988-8.233-4.749-14.956-11.279-20.171c-6.533-5.212-15.123-7.822-25.769-7.822c-7.245,0-13.667,1.317-19.265,3.952
		c-5.598,2.635-9.937,6.285-13.009,10.95c-3.074,4.667-4.61,9.962-4.61,15.89c0,7.137,1.591,12.789,4.776,16.959
		c3.183,4.173,7.023,7.245,11.526,9.221c4.5,1.976,10.592,4.008,18.277,6.092c6.586,1.757,11.745,3.376,15.478,4.857
		c3.73,1.483,6.691,3.883,9.385,6.751c4.688,4.993,7.054,8.118,7.617,12.993c0.625,6.688-1.642,11.213-3.741,16.25
		c-3.333,8-10.956,19.565-27,24.5c-17.206-5.685-25.488-16.653-28.454-25.87c-2.426-7.54-2.88-14.796-1.994-23.128l1.281-8.57
		l-10.729,0.034c-0.081,0.318-0.134,0.479-0.156,0.636c-1.782,12.731-2.408,20.85,0.551,31.147c4.021,13.99,20.5,31,39.304,36.125
		C308,288,322,273.25,327.622,259.177C330.416,252.183,331.886,245.364,330.178,237.25z"/>
</g>
<g id="Ebene_4" display="none">
	
		<path display="inline" fill-rule="evenodd" clip-rule="evenodd" fill="none" stroke="#000000" stroke-width="10" stroke-miterlimit="10" d="
		M320.241,182.577c-0.669-16.688-13.015-23.827-32.741-23.827s-28.25,12.414-28.25,28s13.104,20.25,30.177,25.5
		s41.471,9.983,41.471,31.492c0,33.258-39.094,46.508-39.094,46.508S250.5,274.5,250.5,243.5c0-17,12-20.75,12-20.75"/>
	<path display="inline" fill-rule="evenodd" clip-rule="evenodd" d="M297.527,243.437c0-3.771-3.057-6.828-6.828-6.828
		c-3.771,0-6.828,3.057-6.828,6.828c0,3.011,1.951,5.561,4.656,6.469l-4.276,15.019h12.896l-4.276-15.02
		C295.576,248.998,297.527,246.448,297.527,243.437z"/>
</g>
<g id="Ebene_3" display="none">
	<rect x="320.241" y="170.207" display="inline" fill="none" width="225.518" height="59.311"/>
	<text transform="matrix(1 0 0 1 320.2412 222.0059)" display="inline"><tspan x="0" y="0" fill="#1D1D1B" font-family="'Poppins-Light'" font-size="70">e</tspan><tspan x="43.54" y="0" fill="#1D1D1B" font-family="'Poppins-Light'" font-size="70" letter-spacing="-1">c</tspan><tspan x="85.399" y="0" fill="#1D1D1B" font-family="'Poppins-Bold'" font-size="70">i</tspan><tspan x="105.139" y="0" fill="#1D1D1B" font-family="'Poppins-Bold'" font-size="70" letter-spacing="-1">u</tspan><tspan x="150.358" y="0" fill="#1D1D1B" font-family="'Poppins-Light'" font-size="70" letter-spacing="-3">r</tspan><tspan x="172.688" y="0" fill="#1D1D1B" font-family="'Poppins-Light'" font-size="70">e</tspan></text>
</g>
<g id="Ebene_5" display="none">
	<path display="inline" d="M137.038,168.896l-1.682-0.641c-1.818-0.693-44.522-17.369-44.522-51.422
		c0-20.441,14.875-25.325,15.509-25.522l10.616,5.147c-0.804,0.282-15.5,3.875-16.125,20.375
		c-0.904,23.863,28.976,38.117,36.381,41.364c7.074-2.898,34.017-15.616,34.017-41.122c0-14.489-13.497-19.549-32.563-25.115
		c-1.845-0.539-3.648-1.065-5.378-1.597c-15.799-4.858-33.707-10.365-33.707-30.279c0-20.355,12.741-33,33.25-33
		c31.835,0,37.308,14.936,37.737,25.627l-9.992,2.4c-0.328-8.168-3.56-18.027-27.745-18.027c-20.229,0-23.25,14.41-23.25,23
		c0,11.292,8.533,15.151,26.646,20.721c1.685,0.519,3.442,1.031,5.241,1.556c16.78,4.899,39.76,11.608,39.76,34.715
		c0,36.424-40.754,50.656-42.489,51.244L137.038,168.896z"/>
	<path display="inline" fill-rule="evenodd" clip-rule="evenodd" d="M142.544,115.77c0-3.771-3.057-6.828-6.828-6.828
		c-3.771,0-6.828,3.057-6.828,6.828c0,3.011,1.951,5.561,4.656,6.469l-4.276,15.019h12.896l-4.276-15.02
		C140.593,121.331,142.544,118.781,142.544,115.77z"/>
	<g display="inline">
		<path fill="#1D1D1B" d="M186.729,74.299h-19.851c0.088,1.812,0.526,3.36,1.314,4.645c0.789,1.286,1.826,2.257,3.112,2.915
			c1.285,0.657,2.688,0.986,4.207,0.986c1.986,0,3.659-0.482,5.017-1.447c1.359-0.963,2.257-2.264,2.695-3.9h3.243
			c-0.584,2.338-1.833,4.244-3.747,5.718c-1.913,1.476-4.316,2.213-7.208,2.213c-2.25,0-4.266-0.504-6.047-1.512
			c-1.782-1.008-3.177-2.439-4.185-4.294c-1.008-1.855-1.512-4.024-1.512-6.508c0-2.483,0.497-4.659,1.49-6.529
			c0.993-1.87,2.381-3.301,4.163-4.295c1.781-0.993,3.813-1.489,6.091-1.489c2.278,0,4.272,0.497,5.981,1.489
			c1.709,0.994,3.024,2.33,3.944,4.01c0.919,1.68,1.38,3.542,1.38,5.587C186.817,72.941,186.787,73.745,186.729,74.299z
			 M182.632,67.245c-0.745-1.256-1.761-2.206-3.046-2.849c-1.286-0.642-2.688-0.964-4.207-0.964c-2.278,0-4.222,0.731-5.828,2.191
			c-1.607,1.46-2.499,3.521-2.673,6.179h16.827C183.733,70.02,183.376,68.501,182.632,67.245z"/>
		<path fill="#1D1D1B" d="M192.514,66.609c0.992-1.854,2.366-3.286,4.118-4.294c1.753-1.008,3.753-1.511,6.004-1.511
			c2.95,0,5.382,0.73,7.296,2.191c1.913,1.461,3.147,3.447,3.703,5.959h-3.287c-0.409-1.724-1.292-3.075-2.65-4.054
			c-1.359-0.978-3.046-1.468-5.062-1.468c-1.607,0-3.053,0.366-4.338,1.096c-1.287,0.731-2.301,1.819-3.046,3.264
			c-0.745,1.447-1.117,3.222-1.117,5.325c0,2.104,0.373,3.886,1.117,5.346c0.745,1.461,1.759,2.557,3.046,3.287
			c1.285,0.731,2.731,1.096,4.338,1.096c2.016,0,3.703-0.49,5.062-1.469c1.358-0.979,2.241-2.345,2.65-4.097h3.287
			c-0.556,2.454-1.797,4.426-3.725,5.915c-1.928,1.49-4.353,2.235-7.274,2.235c-2.25,0-4.25-0.504-6.004-1.512
			c-1.752-1.008-3.126-2.439-4.118-4.294c-0.995-1.855-1.491-4.024-1.491-6.508C191.023,70.633,191.519,68.464,192.514,66.609z"/>
		<path fill="#1D1D1B" d="M218.388,56.924c-0.832-0.773-1.248-1.731-1.248-2.87c0-1.167,0.416-2.14,1.248-2.914
			c0.833-0.773,1.907-1.161,3.221-1.161c1.285,0,2.345,0.388,3.177,1.161c0.833,0.774,1.25,1.747,1.25,2.914
			c0,1.139-0.417,2.097-1.25,2.87c-0.833,0.774-1.892,1.162-3.177,1.162C220.295,58.086,219.221,57.699,218.388,56.924z
			 M225.334,60.627V85.08h-7.494V60.627H225.334z"/>
		<path fill="#1D1D1B" d="M254.344,60.627V85.08h-7.493v-3.331c-0.761,1.082-1.791,1.95-3.089,2.607
			c-1.301,0.657-2.739,0.986-4.317,0.986c-1.87,0-3.521-0.417-4.951-1.25c-1.432-0.832-2.542-2.038-3.331-3.615
			c-0.788-1.578-1.182-3.432-1.182-5.565V60.627h7.45v13.278c0,1.637,0.421,2.907,1.27,3.813c0.846,0.906,1.986,1.358,3.418,1.358
			c1.46,0,2.615-0.453,3.461-1.358c0.847-0.905,1.272-2.176,1.272-3.813V60.627H254.344z"/>
		<path fill="#1D1D1B" d="M265.453,61.942c1.385-0.818,3.087-1.227,5.105-1.227v3.198h-0.834c-2.219,0-4.002,0.599-5.346,1.797
			c-1.345,1.198-2.015,3.199-2.015,6.003V85.08h-3.068V61.153h3.068v4.25C263.033,63.914,264.064,62.761,265.453,61.942z"/>
		<path fill="#1D1D1B" d="M294.833,74.299h-19.849c0.087,1.812,0.524,3.36,1.313,4.645c0.788,1.286,1.825,2.257,3.111,2.915
			c1.285,0.657,2.687,0.986,4.208,0.986c1.986,0,3.658-0.482,5.016-1.447c1.358-0.963,2.257-2.264,2.695-3.9h3.243
			c-0.584,2.338-1.833,4.244-3.746,5.718c-1.914,1.476-4.316,2.213-7.208,2.213c-2.25,0-4.266-0.504-6.048-1.512
			c-1.782-1.008-3.176-2.439-4.184-4.294c-1.009-1.855-1.513-4.024-1.513-6.508c0-2.483,0.497-4.659,1.49-6.529
			c0.992-1.87,2.381-3.301,4.164-4.295c1.781-0.993,3.812-1.489,6.091-1.489c2.277,0,4.271,0.497,5.98,1.489
			c1.708,0.994,3.024,2.33,3.944,4.01c0.921,1.68,1.38,3.542,1.38,5.587C294.92,72.941,294.892,73.745,294.833,74.299z
			 M290.736,67.245c-0.745-1.256-1.76-2.206-3.045-2.849c-1.286-0.642-2.687-0.964-4.206-0.964c-2.279,0-4.222,0.731-5.829,2.191
			c-1.607,1.46-2.498,3.521-2.672,6.179h16.826C291.839,70.02,291.48,68.501,290.736,67.245z"/>
	</g>
	<path display="inline" fill="#2454C4" d="M420.973,168.896l-1.682-0.641c-1.818-0.693-44.522-17.369-44.522-51.422
		c0-20.441,14.875-25.325,15.509-25.522l10.616,5.147c-0.804,0.282-15.5,3.875-16.125,20.375
		c-0.904,23.863,28.976,38.117,36.381,41.364c7.074-2.898,34.017-15.616,34.017-41.122c0-14.489-13.496-19.549-32.563-25.115
		c-1.845-0.539-3.648-1.065-5.378-1.597c-15.799-4.858-33.707-10.365-33.707-30.279c0-20.355,12.741-33,33.25-33
		c31.835,0,37.308,14.936,37.737,25.627l-9.992,2.4c-0.328-8.168-3.561-18.027-27.745-18.027c-20.229,0-23.25,14.41-23.25,23
		c0,11.292,8.533,15.151,26.646,20.721c1.685,0.519,3.442,1.031,5.241,1.556c16.779,4.899,39.76,11.608,39.76,34.715
		c0,36.424-40.754,50.656-42.488,51.244L420.973,168.896z"/>
	<path display="inline" fill-rule="evenodd" clip-rule="evenodd" fill="#2454C4" d="M426.479,115.77
		c0-3.771-3.057-6.828-6.827-6.828c-3.771,0-6.828,3.057-6.828,6.828c0,3.011,1.951,5.561,4.656,6.469l-4.276,15.019H426.1
		l-4.276-15.02C424.527,121.331,426.479,118.781,426.479,115.77z"/>
	<g display="inline">
		<path fill="#2454C4" d="M470.664,74.299h-19.852c0.088,1.812,0.526,3.36,1.314,4.645c0.789,1.286,1.826,2.257,3.112,2.915
			c1.285,0.657,2.688,0.986,4.206,0.986c1.986,0,3.659-0.482,5.018-1.447c1.359-0.963,2.258-2.264,2.695-3.9h3.242
			c-0.584,2.338-1.833,4.244-3.746,5.718c-1.914,1.476-4.316,2.213-7.209,2.213c-2.25,0-4.266-0.504-6.047-1.512
			c-1.782-1.008-3.177-2.439-4.186-4.294c-1.008-1.855-1.512-4.024-1.512-6.508c0-2.483,0.498-4.659,1.49-6.529
			c0.993-1.87,2.381-3.301,4.163-4.295c1.781-0.993,3.813-1.489,6.091-1.489c2.278,0,4.273,0.497,5.982,1.489
			c1.709,0.994,3.023,2.33,3.943,4.01c0.92,1.68,1.381,3.542,1.381,5.587C470.752,72.941,470.722,73.745,470.664,74.299z
			 M466.566,67.245c-0.744-1.256-1.76-2.206-3.045-2.849c-1.286-0.642-2.688-0.964-4.207-0.964c-2.279,0-4.223,0.731-5.828,2.191
			c-1.607,1.46-2.498,3.521-2.674,6.179h16.828C467.668,70.02,467.312,68.501,466.566,67.245z"/>
		<path fill="#2454C4" d="M476.449,66.609c0.992-1.854,2.365-3.286,4.117-4.294c1.754-1.008,3.754-1.511,6.004-1.511
			c2.951,0,5.383,0.73,7.297,2.191c1.912,1.461,3.146,3.447,3.702,5.959h-3.286c-0.41-1.724-1.293-3.075-2.65-4.054
			c-1.359-0.978-3.047-1.468-5.063-1.468c-1.607,0-3.053,0.366-4.338,1.096c-1.287,0.731-2.301,1.819-3.046,3.264
			c-0.745,1.447-1.117,3.222-1.117,5.325c0,2.104,0.372,3.886,1.117,5.346c0.745,1.461,1.759,2.557,3.046,3.287
			c1.285,0.731,2.73,1.096,4.338,1.096c2.016,0,3.703-0.49,5.063-1.469c1.357-0.979,2.24-2.345,2.65-4.097h3.286
			c-0.556,2.454-1.797,4.426-3.725,5.915c-1.928,1.49-4.353,2.235-7.274,2.235c-2.25,0-4.25-0.504-6.004-1.512
			c-1.752-1.008-3.125-2.439-4.117-4.294c-0.995-1.855-1.491-4.024-1.491-6.508C474.958,70.633,475.454,68.464,476.449,66.609z"/>
		<path fill="#1D1D1B" d="M502.323,56.924c-0.832-0.773-1.248-1.731-1.248-2.87c0-1.167,0.416-2.14,1.248-2.914
			c0.833-0.773,1.907-1.161,3.222-1.161c1.285,0,2.344,0.388,3.177,1.161c0.833,0.774,1.249,1.747,1.249,2.914
			c0,1.139-0.416,2.097-1.249,2.87c-0.833,0.774-1.892,1.162-3.177,1.162C504.23,58.086,503.156,57.699,502.323,56.924z
			 M509.27,60.627V85.08h-7.494V60.627H509.27z"/>
		<path fill="#1D1D1B" d="M538.279,60.627V85.08h-7.494v-3.331c-0.76,1.082-1.79,1.95-3.089,2.607
			c-1.301,0.657-2.739,0.986-4.317,0.986c-1.869,0-3.521-0.417-4.951-1.25c-1.432-0.832-2.541-2.038-3.331-3.615
			c-0.788-1.578-1.183-3.432-1.183-5.565V60.627h7.45v13.278c0,1.637,0.421,2.907,1.271,3.813c0.846,0.906,1.985,1.358,3.418,1.358
			c1.46,0,2.614-0.453,3.461-1.358c0.847-0.905,1.271-2.176,1.271-3.813V60.627H538.279z"/>
		<path fill="#2454C4" d="M549.388,61.942c1.386-0.818,3.087-1.227,5.104-1.227v3.198h-0.834c-2.219,0-4.002,0.599-5.346,1.797
			s-2.015,3.199-2.015,6.003V85.08h-3.068V61.153h3.068v4.25C546.969,63.914,548,62.761,549.388,61.942z"/>
		<path fill="#2454C4" d="M578.768,74.299h-19.849c0.087,1.812,0.524,3.36,1.313,4.645c0.787,1.286,1.825,2.257,3.111,2.915
			c1.285,0.657,2.687,0.986,4.207,0.986c1.986,0,3.658-0.482,5.017-1.447c1.358-0.963,2.257-2.264,2.695-3.9h3.243
			c-0.584,2.338-1.834,4.244-3.746,5.718c-1.914,1.476-4.316,2.213-7.209,2.213c-2.25,0-4.266-0.504-6.047-1.512
			c-1.783-1.008-3.177-2.439-4.185-4.294c-1.009-1.855-1.513-4.024-1.513-6.508c0-2.483,0.496-4.659,1.49-6.529
			c0.992-1.87,2.381-3.301,4.164-4.295c1.781-0.993,3.812-1.489,6.09-1.489c2.277,0,4.271,0.497,5.98,1.489
			c1.709,0.994,3.023,2.33,3.944,4.01c0.921,1.68,1.38,3.542,1.38,5.587C578.855,72.941,578.827,73.745,578.768,74.299z
			 M574.671,67.245c-0.745-1.256-1.761-2.206-3.046-2.849c-1.285-0.642-2.687-0.964-4.205-0.964c-2.279,0-4.223,0.731-5.829,2.191
			s-2.497,3.521-2.672,6.179h16.825C575.773,70.02,575.416,68.501,574.671,67.245z"/>
	</g>
	<path display="inline" d="M137.038,549.563l-1.682-0.641c-1.818-0.693-44.522-17.369-44.522-51.422
		c0-20.441,14.875-25.325,15.509-25.523l10.616,5.148c-0.804,0.281-15.5,3.875-16.125,20.375
		c-0.904,23.863,28.976,38.117,36.381,41.363c7.074-2.898,34.017-15.615,34.017-41.122c0-14.489-13.497-19.549-32.563-25.115
		c-1.845-0.539-3.648-1.065-5.378-1.597c-15.799-4.859-33.707-10.365-33.707-30.279c0-20.355,12.741-33,33.25-33
		c31.835,0,37.308,14.936,37.737,25.627l-9.992,2.4c-0.328-8.168-3.56-18.027-27.745-18.027c-20.229,0-23.25,14.41-23.25,23
		c0,11.291,8.533,15.15,26.646,20.721c1.685,0.518,3.442,1.031,5.241,1.556c16.78,4.899,39.76,11.608,39.76,34.715
		c0,36.425-40.754,50.655-42.489,51.243L137.038,549.563z"/>
	<path display="inline" fill-rule="evenodd" clip-rule="evenodd" fill="#2454C4" d="M142.544,496.437
		c0-3.771-3.057-6.828-6.828-6.828c-3.771,0-6.828,3.057-6.828,6.828c0,3.011,1.951,5.562,4.656,6.47l-4.276,15.019h12.896
		l-4.276-15.02C140.593,501.997,142.544,499.447,142.544,496.437z"/>
	<g display="inline">
		<path fill="#2454C4" d="M186.729,454.966h-19.851c0.088,1.812,0.526,3.36,1.314,4.646c0.789,1.285,1.826,2.256,3.112,2.914
			c1.285,0.656,2.688,0.986,4.207,0.986c1.986,0,3.659-0.482,5.017-1.447c1.359-0.963,2.257-2.264,2.695-3.899h3.243
			c-0.584,2.338-1.833,4.243-3.747,5.718c-1.913,1.477-4.316,2.214-7.208,2.214c-2.25,0-4.266-0.505-6.047-1.512
			c-1.782-1.009-3.177-2.438-4.185-4.294c-1.008-1.855-1.512-4.025-1.512-6.508c0-2.483,0.497-4.66,1.49-6.529
			c0.993-1.869,2.381-3.301,4.163-4.295c1.781-0.992,3.813-1.489,6.091-1.489c2.278,0,4.272,0.497,5.981,1.489
			c1.709,0.994,3.024,2.33,3.944,4.01c0.919,1.68,1.38,3.543,1.38,5.588C186.817,453.607,186.787,454.412,186.729,454.966z
			 M182.632,447.911c-0.745-1.257-1.761-2.206-3.046-2.849c-1.286-0.643-2.688-0.965-4.207-0.965c-2.278,0-4.222,0.731-5.828,2.191
			c-1.607,1.461-2.499,3.521-2.673,6.18h16.827C183.733,450.687,183.376,449.168,182.632,447.911z"/>
		<path fill="#2454C4" d="M192.514,447.275c0.992-1.854,2.366-3.286,4.118-4.295c1.753-1.008,3.753-1.511,6.004-1.511
			c2.95,0,5.382,0.729,7.296,2.19c1.913,1.461,3.147,3.447,3.703,5.96h-3.287c-0.409-1.724-1.292-3.075-2.65-4.054
			c-1.359-0.979-3.046-1.469-5.062-1.469c-1.607,0-3.053,0.366-4.338,1.096c-1.287,0.731-2.301,1.819-3.046,3.265
			c-0.745,1.446-1.117,3.222-1.117,5.325s0.373,3.886,1.117,5.346c0.745,1.461,1.759,2.557,3.046,3.287
			c1.285,0.73,2.731,1.096,4.338,1.096c2.016,0,3.703-0.49,5.062-1.469c1.358-0.979,2.241-2.345,2.65-4.097h3.287
			c-0.556,2.454-1.797,4.426-3.725,5.915c-1.928,1.49-4.353,2.235-7.274,2.235c-2.25,0-4.25-0.505-6.004-1.512
			c-1.752-1.009-3.126-2.438-4.118-4.294c-0.995-1.855-1.491-4.025-1.491-6.508C191.023,451.3,191.519,449.131,192.514,447.275z"/>
		<path fill="#1D1D1B" d="M218.388,437.591c-0.832-0.773-1.248-1.731-1.248-2.87c0-1.168,0.416-2.14,1.248-2.914
			c0.833-0.773,1.907-1.161,3.221-1.161c1.285,0,2.345,0.388,3.177,1.161c0.833,0.774,1.25,1.746,1.25,2.914
			c0,1.139-0.417,2.097-1.25,2.87c-0.833,0.774-1.892,1.161-3.177,1.161C220.295,438.752,219.221,438.365,218.388,437.591z
			 M225.334,441.294v24.452h-7.494v-24.452H225.334z"/>
		<path fill="#1D1D1B" d="M254.344,441.294v24.452h-7.493v-3.33c-0.761,1.081-1.791,1.949-3.089,2.607
			c-1.301,0.656-2.739,0.986-4.317,0.986c-1.87,0-3.521-0.418-4.951-1.25c-1.432-0.832-2.542-2.037-3.331-3.615
			c-0.788-1.578-1.182-3.432-1.182-5.564v-14.286h7.45v13.278c0,1.637,0.421,2.906,1.27,3.813c0.846,0.905,1.986,1.357,3.418,1.357
			c1.46,0,2.615-0.452,3.461-1.357c0.847-0.906,1.272-2.176,1.272-3.813v-13.278H254.344z"/>
		<path fill="#2454C4" d="M265.453,442.609c1.385-0.818,3.087-1.227,5.105-1.227v3.197h-0.834c-2.219,0-4.002,0.6-5.346,1.797
			c-1.345,1.199-2.015,3.199-2.015,6.004v13.365h-3.068V441.82h3.068v4.25C263.033,444.58,264.064,443.428,265.453,442.609z"/>
		<path fill="#2454C4" d="M294.833,454.966h-19.849c0.087,1.812,0.524,3.36,1.313,4.646c0.788,1.285,1.825,2.256,3.111,2.914
			c1.285,0.656,2.687,0.986,4.208,0.986c1.986,0,3.658-0.482,5.016-1.447c1.358-0.963,2.257-2.264,2.695-3.899h3.243
			c-0.584,2.338-1.833,4.243-3.746,5.718c-1.914,1.477-4.316,2.214-7.208,2.214c-2.25,0-4.266-0.505-6.048-1.512
			c-1.782-1.009-3.176-2.438-4.184-4.294c-1.009-1.855-1.513-4.025-1.513-6.508c0-2.483,0.497-4.66,1.49-6.529
			c0.992-1.869,2.381-3.301,4.164-4.295c1.781-0.992,3.812-1.489,6.091-1.489c2.277,0,4.271,0.497,5.98,1.489
			c1.708,0.994,3.024,2.33,3.944,4.01c0.921,1.68,1.38,3.543,1.38,5.588C294.92,453.607,294.892,454.412,294.833,454.966z
			 M290.736,447.911c-0.745-1.257-1.76-2.206-3.045-2.849c-1.286-0.643-2.687-0.965-4.206-0.965c-2.279,0-4.222,0.731-5.829,2.191
			c-1.607,1.461-2.498,3.521-2.672,6.18h16.826C291.839,450.687,291.48,449.168,290.736,447.911z"/>
	</g>
	<path display="inline" fill="#2454C4" d="M137.038,352.229l-1.682-0.642c-1.818-0.693-44.522-17.368-44.522-51.422
		c0-20.44,14.875-25.324,15.509-25.522l10.616,5.147c-0.804,0.282-15.5,3.875-16.125,20.375
		c-0.904,23.863,28.976,38.117,36.381,41.364c7.074-2.897,34.017-15.616,34.017-41.122c0-14.489-13.497-19.549-32.563-25.115
		c-1.845-0.539-3.648-1.065-5.378-1.597c-15.799-4.858-33.707-10.365-33.707-30.279c0-20.355,12.741-33,33.25-33
		c31.835,0,37.308,14.936,37.737,25.627l-9.992,2.4c-0.328-8.168-3.56-18.027-27.745-18.027c-20.229,0-23.25,14.41-23.25,23
		c0,11.292,8.533,15.151,26.646,20.721c1.685,0.519,3.442,1.031,5.241,1.556c16.78,4.899,39.76,11.608,39.76,34.715
		c0,36.424-40.754,50.656-42.489,51.244L137.038,352.229z"/>
	<path display="inline" fill-rule="evenodd" clip-rule="evenodd" fill="#2454C4" d="M142.544,299.104
		c0-3.771-3.057-6.828-6.828-6.828c-3.771,0-6.828,3.057-6.828,6.828c0,3.011,1.951,5.561,4.656,6.469l-4.276,15.02h12.896
		l-4.276-15.02C140.593,304.664,142.544,302.114,142.544,299.104z"/>
	<g display="inline">
		<path fill="#1D1D1B" d="M186.729,257.633h-19.851c0.088,1.812,0.526,3.36,1.314,4.645c0.789,1.286,1.826,2.257,3.112,2.915
			c1.285,0.657,2.688,0.986,4.207,0.986c1.986,0,3.659-0.482,5.017-1.447c1.359-0.963,2.257-2.264,2.695-3.9h3.243
			c-0.584,2.338-1.833,4.244-3.747,5.718c-1.913,1.476-4.316,2.213-7.208,2.213c-2.25,0-4.266-0.504-6.047-1.512
			c-1.782-1.008-3.177-2.439-4.185-4.294c-1.008-1.855-1.512-4.024-1.512-6.508c0-2.483,0.497-4.659,1.49-6.529
			c0.993-1.87,2.381-3.301,4.163-4.295c1.781-0.993,3.813-1.489,6.091-1.489c2.278,0,4.272,0.497,5.981,1.489
			c1.709,0.994,3.024,2.33,3.944,4.01c0.919,1.68,1.38,3.542,1.38,5.587C186.817,256.274,186.787,257.079,186.729,257.633z
			 M182.632,250.578c-0.745-1.256-1.761-2.206-3.046-2.849c-1.286-0.642-2.688-0.964-4.207-0.964c-2.278,0-4.222,0.731-5.828,2.191
			c-1.607,1.46-2.499,3.521-2.673,6.179h16.827C183.733,253.354,183.376,251.834,182.632,250.578z"/>
		<path fill="#1D1D1B" d="M192.514,249.942c0.992-1.854,2.366-3.286,4.118-4.294c1.753-1.008,3.753-1.511,6.004-1.511
			c2.95,0,5.382,0.73,7.296,2.191c1.913,1.461,3.147,3.447,3.703,5.959h-3.287c-0.409-1.724-1.292-3.075-2.65-4.054
			c-1.359-0.978-3.046-1.468-5.062-1.468c-1.607,0-3.053,0.366-4.338,1.096c-1.287,0.731-2.301,1.819-3.046,3.264
			c-0.745,1.447-1.117,3.222-1.117,5.325c0,2.104,0.373,3.886,1.117,5.346c0.745,1.461,1.759,2.557,3.046,3.287
			c1.285,0.731,2.731,1.096,4.338,1.096c2.016,0,3.703-0.49,5.062-1.469c1.358-0.979,2.241-2.345,2.65-4.097h3.287
			c-0.556,2.454-1.797,4.426-3.725,5.915c-1.928,1.49-4.353,2.235-7.274,2.235c-2.25,0-4.25-0.504-6.004-1.512
			c-1.752-1.008-3.126-2.439-4.118-4.294c-0.995-1.855-1.491-4.024-1.491-6.508C191.023,253.967,191.519,251.798,192.514,249.942z"
			/>
		<path fill="#2454C4" d="M218.388,240.258c-0.832-0.773-1.248-1.731-1.248-2.87c0-1.167,0.416-2.14,1.248-2.914
			c0.833-0.773,1.907-1.161,3.221-1.161c1.285,0,2.345,0.388,3.177,1.161c0.833,0.774,1.25,1.747,1.25,2.914
			c0,1.139-0.417,2.097-1.25,2.87c-0.833,0.774-1.892,1.162-3.177,1.162C220.295,241.419,219.221,241.032,218.388,240.258z
			 M225.334,243.961v24.452h-7.494v-24.452H225.334z"/>
		<path fill="#2454C4" d="M254.344,243.961v24.452h-7.493v-3.331c-0.761,1.082-1.791,1.95-3.089,2.607
			c-1.301,0.657-2.739,0.986-4.317,0.986c-1.87,0-3.521-0.417-4.951-1.25c-1.432-0.832-2.542-2.038-3.331-3.615
			c-0.788-1.578-1.182-3.432-1.182-5.565v-14.286h7.45v13.278c0,1.637,0.421,2.907,1.27,3.813c0.846,0.906,1.986,1.358,3.418,1.358
			c1.46,0,2.615-0.453,3.461-1.358c0.847-0.905,1.272-2.176,1.272-3.813v-13.278H254.344z"/>
		<path fill="#1D1D1B" d="M265.453,245.276c1.385-0.818,3.087-1.227,5.105-1.227v3.198h-0.834c-2.219,0-4.002,0.599-5.346,1.797
			c-1.345,1.198-2.015,3.199-2.015,6.003v13.366h-3.068v-23.926h3.068v4.25C263.033,247.247,264.064,246.094,265.453,245.276z"/>
		<path fill="#1D1D1B" d="M294.833,257.633h-19.849c0.087,1.812,0.524,3.36,1.313,4.645c0.788,1.286,1.825,2.257,3.111,2.915
			c1.285,0.657,2.687,0.986,4.208,0.986c1.986,0,3.658-0.482,5.016-1.447c1.358-0.963,2.257-2.264,2.695-3.9h3.243
			c-0.584,2.338-1.833,4.244-3.746,5.718c-1.914,1.476-4.316,2.213-7.208,2.213c-2.25,0-4.266-0.504-6.048-1.512
			c-1.782-1.008-3.176-2.439-4.184-4.294c-1.009-1.855-1.513-4.024-1.513-6.508c0-2.483,0.497-4.659,1.49-6.529
			c0.992-1.87,2.381-3.301,4.164-4.295c1.781-0.993,3.812-1.489,6.091-1.489c2.277,0,4.271,0.497,5.98,1.489
			c1.708,0.994,3.024,2.33,3.944,4.01c0.921,1.68,1.38,3.542,1.38,5.587C294.92,256.274,294.892,257.079,294.833,257.633z
			 M290.736,250.578c-0.745-1.256-1.76-2.206-3.045-2.849c-1.286-0.642-2.687-0.964-4.206-0.964c-2.279,0-4.222,0.731-5.829,2.191
			c-1.607,1.46-2.498,3.521-2.672,6.179h16.826C291.839,253.354,291.48,251.834,290.736,250.578z"/>
	</g>
	<g display="inline">
		<path fill="#1D1D1B" d="M468.889,72.267h-19.482c0.087,1.778,0.517,3.298,1.291,4.559c0.774,1.262,1.791,2.215,3.053,2.859
			c1.262,0.646,2.638,0.969,4.129,0.969c1.949,0,3.591-0.474,4.924-1.419c1.334-0.946,2.215-2.222,2.646-3.828h3.183
			c-0.574,2.294-1.8,4.165-3.678,5.612c-1.878,1.448-4.236,2.172-7.074,2.172c-2.208,0-4.187-0.495-5.934-1.483
			c-1.75-0.989-3.119-2.394-4.108-4.214c-0.988-1.82-1.483-3.95-1.483-6.387c0-2.437,0.487-4.573,1.462-6.408
			c0.975-1.834,2.337-3.24,4.086-4.214c1.748-0.974,3.741-1.462,5.978-1.462s4.192,0.488,5.87,1.462
			c1.678,0.975,2.968,2.287,3.871,3.935c0.902,1.649,1.354,3.477,1.354,5.484C468.975,70.934,468.945,71.723,468.889,72.267z
			 M464.868,65.343c-0.731-1.232-1.728-2.165-2.989-2.795c-1.262-0.63-2.639-0.946-4.129-0.946c-2.236,0-4.144,0.717-5.72,2.15
			c-1.577,1.434-2.452,3.455-2.624,6.064h16.515C465.949,68.067,465.599,66.576,464.868,65.343z"/>
		<path fill="#1D1D1B" d="M474.565,64.719c0.974-1.82,2.322-3.225,4.042-4.215c1.721-0.989,3.684-1.483,5.892-1.483
			c2.896,0,5.282,0.717,7.161,2.15c1.877,1.434,3.089,3.383,3.633,5.849h-3.225c-0.402-1.691-1.269-3.017-2.602-3.978
			c-1.333-0.96-2.989-1.441-4.968-1.441c-1.576,0-2.996,0.359-4.257,1.075c-1.263,0.717-2.258,1.785-2.989,3.204
			s-1.097,3.161-1.097,5.225s0.365,3.813,1.097,5.247c0.731,1.434,1.727,2.509,2.989,3.226c1.261,0.716,2.681,1.075,4.257,1.075
			c1.979,0,3.635-0.48,4.968-1.441c1.333-0.96,2.199-2.301,2.602-4.021h3.225c-0.544,2.408-1.763,4.344-3.654,5.806
			c-1.893,1.462-4.273,2.193-7.14,2.193c-2.208,0-4.171-0.495-5.892-1.483c-1.72-0.989-3.068-2.394-4.042-4.214
			c-0.975-1.82-1.462-3.95-1.462-6.387C473.104,68.669,473.591,66.54,474.565,64.719z"/>
		<path fill="#1D1D1B" d="M500.019,56.075v-5.772h6.237v5.772H500.019z M500.019,82.846V59.271h6.237v23.575H500.019z"/>
		<path fill="#1D1D1B" d="M527.576,82.846v-3.529c-0.858,1.258-1.987,2.25-3.386,2.974c-1.397,0.725-2.874,1.088-4.429,1.088
			c-1.583,0-3.004-0.348-4.263-1.043c-1.258-0.696-2.167-1.672-2.729-2.931c-0.563-1.257-0.844-2.997-0.844-5.217V59.271h6.238
			v10.833c0,3.315,0.113,5.346,0.344,6.094c0.229,0.748,0.647,1.339,1.254,1.776c0.606,0.437,1.376,0.655,2.309,0.655
			c1.066,0,2.02-0.292,2.864-0.876c0.843-0.584,1.42-1.311,1.731-2.176c0.311-0.866,0.466-2.986,0.466-6.36v-9.945h6.238v23.575
			H527.576z"/>
		<path fill="#1D1D1B" d="M544.776,60.139c1.36-0.802,3.032-1.204,5.01-1.204v3.14h-0.817c-2.179,0-3.929,0.588-5.246,1.763
			c-1.319,1.176-1.979,3.139-1.979,5.892v13.117h-3.01V59.365h3.01v4.171C542.403,62.075,543.413,60.942,544.776,60.139z"/>
		<path fill="#1D1D1B" d="M573.611,72.267H554.13c0.086,1.778,0.516,3.298,1.29,4.559c0.773,1.262,1.791,2.215,3.054,2.859
			c1.262,0.646,2.638,0.969,4.129,0.969c1.948,0,3.59-0.474,4.923-1.419c1.333-0.946,2.216-2.222,2.645-3.828h3.183
			c-0.573,2.294-1.799,4.165-3.677,5.612c-1.878,1.448-4.235,2.172-7.073,2.172c-2.209,0-4.187-0.495-5.936-1.483
			c-1.748-0.989-3.118-2.394-4.107-4.214c-0.988-1.82-1.483-3.95-1.483-6.387c0-2.437,0.487-4.573,1.462-6.408
			c0.975-1.834,2.337-3.24,4.087-4.214c1.747-0.974,3.74-1.462,5.978-1.462c2.235,0,4.192,0.488,5.869,1.462
			c1.677,0.975,2.968,2.287,3.87,3.935c0.904,1.649,1.354,3.477,1.354,5.484C573.696,70.934,573.668,71.723,573.611,72.267z
			 M569.591,65.343c-0.732-1.232-1.729-2.165-2.989-2.795c-1.263-0.63-2.639-0.946-4.129-0.946c-2.236,0-4.144,0.717-5.72,2.15
			c-1.577,1.434-2.451,3.455-2.623,6.064h16.514C570.672,68.067,570.321,66.576,569.591,65.343z"/>
	</g>
</g>
<g id="Ebene_6">
	<g>
		<path fill="#2454C4" d="M224.936,548.995l-6.148-2.343c-6.648-2.535-162.782-63.503-162.782-188.003
			c0-74.736,54.388-92.591,56.705-93.316l38.81,18.823c-2.935,1.028-56.669,14.167-58.955,74.493
			c-3.302,87.247,105.941,139.36,133.012,151.229c25.864-10.597,124.371-57.091,124.371-150.346
			c0-52.975-49.342-71.473-119.051-91.825c-6.749-1.971-13.339-3.895-19.667-5.837c-57.762-17.767-123.236-37.896-123.236-110.704
			c0-74.421,46.583-120.651,121.565-120.651c116.396,0,136.404,54.605,137.976,93.694l-36.533,8.776
			c-1.199-29.863-13.018-65.91-101.442-65.91c-73.957,0-85.004,52.685-85.004,84.09c0,41.281,31.198,55.391,97.422,75.757
			c6.163,1.892,12.589,3.771,19.166,5.688c61.347,17.913,145.365,42.441,145.365,126.921c0,133.172-149,185.2-155.341,187.35
			L224.936,548.995z"/>
		<path fill-rule="evenodd" clip-rule="evenodd" fill="#2454C4" d="M245.065,354.762c0-13.789-11.175-24.965-24.964-24.965
			c-13.786,0-24.964,11.176-24.964,24.965c0,11.008,7.134,20.333,17.024,23.653l-15.632,54.91h47.151l-15.638-54.913
			C237.933,375.092,245.065,365.77,245.065,354.762z"/>
	</g>
	<g>
		<path fill="#2454C4" d="M400.121,195.71h-71.229c0.314,6.499,1.885,12.054,4.72,16.667c2.828,4.613,6.548,8.098,11.161,10.455
			c4.613,2.36,9.64,3.542,15.095,3.542c7.127,0,13.125-1.735,18.002-5.191c4.877-3.459,8.097-8.123,9.669-13.996h11.639
			c-2.1,8.391-6.584,15.228-13.446,20.519c-6.87,5.295-15.488,7.94-25.865,7.94c-8.076,0-15.31-1.81-21.693-5.423
			c-6.398-3.613-11.404-8.751-15.025-15.41c-3.613-6.655-5.42-14.438-5.42-23.35c0-8.905,1.778-16.717,5.342-23.426
			c3.563-6.708,8.547-11.843,14.938-15.406c6.391-3.563,13.682-5.348,21.857-5.348c8.177,0,15.325,1.785,21.458,5.348
			c6.134,3.563,10.854,8.358,14.153,14.382c3.299,6.034,4.956,12.714,4.956,20.051C400.436,190.833,400.328,193.718,400.121,195.71z
			 M385.418,170.396c-2.671-4.506-6.312-7.916-10.925-10.222c-4.613-2.303-9.647-3.46-15.096-3.46
			c-8.177,0-15.153,2.62-20.916,7.862c-5.762,5.241-8.961,12.631-9.589,22.172h60.375
			C389.375,180.354,388.089,174.902,385.418,170.396z"/>
		<path fill="#2454C4" d="M420.873,168.115c3.563-6.652,8.491-11.793,14.782-15.41s13.468-5.423,21.537-5.423
			c10.589,0,19.315,2.621,26.186,7.862c6.861,5.241,11.289,12.368,13.281,21.383h-11.789c-1.472-6.184-4.642-11.029-9.513-14.542
			c-4.877-3.513-10.932-5.27-18.165-5.27c-5.763,0-10.955,1.314-15.561,3.931c-4.62,2.625-8.255,6.523-10.933,11.715
			c-2.671,5.191-4.006,11.554-4.006,19.102c0,7.547,1.335,13.946,4.006,19.188c2.678,5.241,6.313,9.172,10.933,11.789
			c4.605,2.621,9.798,3.935,15.561,3.935c7.233,0,13.288-1.757,18.165-5.27c4.871-3.509,8.041-8.411,9.513-14.703h11.789
			c-1.992,8.805-6.447,15.881-13.36,21.23c-6.92,5.345-15.624,8.015-26.106,8.015c-8.069,0-15.246-1.81-21.537-5.423
			s-11.219-8.751-14.782-15.41c-3.563-6.655-5.341-14.438-5.341-23.35C415.531,182.557,417.31,174.774,420.873,168.115z"/>
		<path fill="#1D1D1B" d="M513.932,136.51v-21.104h22.808v21.104H513.932z M513.932,234.389v-86.193h22.808v86.193H513.932z"/>
		<path fill="#1D1D1B" d="M614.688,234.389v-12.904c-3.143,4.599-7.27,8.223-12.382,10.872c-5.105,2.653-10.505,3.978-16.188,3.978
			c-5.792,0-10.982-1.271-15.588-3.813c-4.6-2.542-7.92-6.112-9.977-10.711c-2.063-4.599-3.085-10.961-3.085-19.073v-54.541h22.809
			v39.606c0,12.121,0.414,19.548,1.256,22.279c0.836,2.731,2.364,4.895,4.585,6.495c2.214,1.596,5.027,2.392,8.44,2.392
			c3.899,0,7.384-1.068,10.468-3.207c3.085-2.135,5.192-4.792,6.334-7.955c1.136-3.164,1.7-10.915,1.7-23.25v-36.361h22.808v86.193
			H614.688z"/>
		<path fill="#2454C4" d="M677.57,151.37c4.977-2.931,11.09-4.402,18.316-4.402v11.479h-2.985c-7.969,0-14.367,2.149-19.18,6.444
			c-4.827,4.299-7.24,11.479-7.24,21.544v47.955h-11.005v-85.851h11.005v15.253C668.895,158.446,672.586,154.309,677.57,151.37z"/>
		<path fill="#2454C4" d="M782.997,195.71h-71.229c0.314,6.499,1.886,12.054,4.721,16.667c2.827,4.613,6.548,8.098,11.16,10.455
			c4.614,2.36,9.647,3.542,15.096,3.542c7.127,0,13.125-1.735,18.003-5.191c4.869-3.459,8.097-8.123,9.668-13.996h11.633
			c-2.093,8.391-6.577,15.228-13.438,20.519c-6.871,5.295-15.489,7.94-25.865,7.94c-8.076,0-15.303-1.81-21.7-5.423
			c-6.391-3.613-11.396-8.751-15.018-15.41c-3.613-6.655-5.42-14.438-5.42-23.35c0-8.905,1.778-16.717,5.341-23.426
			c3.564-6.708,8.548-11.843,14.946-15.406c6.384-3.563,13.675-5.348,21.851-5.348c8.177,0,15.332,1.785,21.458,5.348
			c6.135,3.563,10.854,8.358,14.153,14.382c3.307,6.034,4.949,12.714,4.949,20.051C783.305,190.833,783.204,193.718,782.997,195.71z
			 M768.294,170.396c-2.678-4.506-6.319-7.916-10.925-10.222c-4.62-2.303-9.647-3.46-15.096-3.46c-8.177,0-15.152,2.62-20.915,7.862
			c-5.764,5.241-8.962,12.631-9.591,22.172h60.376C772.25,180.354,770.965,174.902,768.294,170.396z"/>
	</g>
</g>
</svg>
