<?xml version="1.0" encoding="utf-8"?>
<!-- Generator: Adobe Illustrator 16.0.0, SVG Export Plug-In . SVG Version: 6.00 Build 0)  -->
<!DOCTYPE svg PUBLIC "-//W3C//DTD SVG 1.1//EN" "http://www.w3.org/Graphics/SVG/1.1/DTD/svg11.dtd">
<svg version="1.1" id="Ebene_1" xmlns="http://www.w3.org/2000/svg" xmlns:xlink="http://www.w3.org/1999/xlink" x="0px" y="0px"
	 width="600px" height="600px" viewBox="0 0 600 600" enable-background="new 0 0 600 600" xml:space="preserve">
<path d="M488,299H179.213l83.841-83.841c5.858-5.858,5.858-15.355,0-21.213c-5.857-5.858-15.355-5.858-21.213,0L132.946,302.841
	c-2.944,2.943-4.406,6.807-4.391,10.665c-0.012,3.854,1.45,7.713,4.391,10.654l108.895,108.895
	c2.929,2.929,6.768,4.394,10.606,4.394s7.678-1.465,10.606-4.394c5.858-5.857,5.858-15.355,0-21.213L180.212,329H488
	c8.284,0,15-6.716,15-15S496.284,299,488,299z"/>
</svg>
