<svg version="1.1" id="cookie-svg" xmlns="http://www.w3.org/2000/svg" x="0px" y="0px"
		viewBox="0 0 512 512" style="enable-background:new 0 0 512 512;">
        <defs>
    <style>
      .st0 {
        fill: #fff;
      }
    </style>
  </defs>
	<g>
		<g>
			<g>
				<path class="st0" d="M507.4,208.6c-1.3-6.9-6.9-12.1-13.8-12.9c-7-0.8-13.6,2.9-16.5,9.3c-5.1,11.2-16.2,19-29.1,19
					c-14.3,0-26.4-9.6-30.4-22.9c-2.4-8.1-10.8-12.9-19-11c-5.1,1.2-9.8,1.9-14.6,1.9c-35.2-0.1-63.9-28.8-64-64
					c0-4.8,0.7-9.5,1.9-14.6c1.9-8.2-2.9-16.6-11-19C297.6,90.4,288,78.3,288,64c0-12.9,7.8-24,19-29.1c6.4-2.9,10.1-9.5,9.3-16.5
					c-0.8-7-6-12.5-12.9-13.8C288.1,1.7,272.3,0,256,0C114.8,0,0,114.8,0,256c0,141.2,114.8,256,256,256c141.2,0,256-114.8,256-256
					C512,239.7,510.3,223.9,507.4,208.6z M414.3,414.3C373.7,454.9,317.8,480,256,480s-117.7-25.1-158.3-65.7
					C57.1,373.7,32,317.8,32,256S57.1,138.3,97.7,97.7C138.3,57.1,194.2,32,256,32c2.9,0,5.7,0.3,8.6,0.4c-5.3,9.3-8.5,20-8.6,31.6
					c0,23.9,13.3,44.4,32.6,55.3c-0.3,2.8-0.6,5.7-0.6,8.7c0,53,43,96,96,96c3,0,5.9-0.3,8.7-0.6c10.9,19.3,31.4,32.6,55.3,32.6
					c11.5,0,22.3-3.2,31.6-8.6c0.1,2.8,0.4,5.7,0.4,8.6C480,317.8,454.9,373.7,414.3,414.3z"/>
				<circle class="st0" cx="192" cy="128" r="32"/>
				<circle class="st0" cx="128" cy="256" r="32"/>
				<circle class="st0" cx="288" cy="384" r="32"/>
				<circle class="st0" cx="272" cy="272" r="16"/>
				<circle class="st0" cx="400" cy="336" r="16"/>
				<circle class="st0" cx="176" cy="368" r="16"/>
			</g>
		</g>
	</g>
	</svg>