<?xml version="1.0" encoding="utf-8"?>
<!-- Generator: Adobe Illustrator 16.0.0, SVG Export Plug-In . SVG Version: 6.00 Build 0)  -->
<!DOCTYPE svg PUBLIC "-//W3C//DTD SVG 1.1//EN" "http://www.w3.org/Graphics/SVG/1.1/DTD/svg11.dtd">
<svg version="1.1" id="Ebene_1" xmlns="http://www.w3.org/2000/svg" xmlns:xlink="http://www.w3.org/1999/xlink" x="0px" y="0px"
	 width="600px" height="600px" viewBox="0 0 600 600" enable-background="new 0 0 600 600" xml:space="preserve">
<path fill="#FFFFFF" d="M300.174,588.621c-77.682,0-150.714-30.251-205.645-85.181C39.601,448.511,9.35,375.479,9.35,297.796
	c0-77.683,30.251-150.715,85.18-205.645c54.93-54.929,127.963-85.18,205.645-85.18c77.681,0,150.714,30.251,205.644,85.18
	c54.929,54.93,85.181,127.962,85.181,205.645c0,77.682-30.252,150.714-85.181,205.644
	C450.889,558.37,377.855,588.621,300.174,588.621z M300.174,46.242c-138.707,0-251.554,112.847-251.554,251.554
	S161.467,549.35,300.174,549.35c138.707,0,251.553-112.846,251.553-251.553S438.881,46.242,300.174,46.242z"/>
<path fill="#FFFFFF" d="M442.826,434.577l-77.942-77.942c22.603-24.037,36.475-56.374,36.475-91.894
	c0-74.027-60.226-134.252-134.252-134.252c-74.027,0-134.253,60.226-134.253,134.252s60.226,134.252,134.253,134.252
	c27.693,0,53.454-8.431,74.854-22.856l79.653,79.653c2.929,2.929,6.768,4.394,10.606,4.394s7.678-1.465,10.606-4.394
	C448.685,449.933,448.685,440.435,442.826,434.577z M162.853,264.741c0-57.485,46.768-104.252,104.253-104.252
	c57.485,0,104.252,46.768,104.252,104.252s-46.768,104.252-104.252,104.252C209.621,368.993,162.853,322.226,162.853,264.741z"/>
</svg>
