<?xml version="1.0" encoding="utf-8"?>
<!-- Generator: Adobe Illustrator 16.0.0, SVG Export Plug-In . SVG Version: 6.00 Build 0)  -->
<!DOCTYPE svg PUBLIC "-//W3C//DTD SVG 1.1//EN" "http://www.w3.org/Graphics/SVG/1.1/DTD/svg11.dtd">
<svg version="1.1" id="Ebene_1" xmlns="http://www.w3.org/2000/svg" xmlns:xlink="http://www.w3.org/1999/xlink" x="0px" y="0px"
	 width="600px" height="600px" viewBox="0 0 600 600" enable-background="new 0 0 600 600" xml:space="preserve" fill="#2454C4">
<path d="M300.174,588.621c-77.682,0-150.714-30.251-205.645-85.181C39.601,448.511,9.35,375.479,9.35,297.796
	c0-77.683,30.251-150.715,85.18-205.645c54.93-54.929,127.963-85.18,205.645-85.18c77.681,0,150.714,30.251,205.644,85.18
	c54.929,54.93,85.181,127.962,85.181,205.645c0,77.682-30.252,150.714-85.181,205.644
	C450.889,558.37,377.855,588.621,300.174,588.621z M300.174,46.242c-138.707,0-251.554,112.847-251.554,251.554
	S161.467,549.35,300.174,549.35c138.707,0,251.553-112.846,251.553-251.553S438.881,46.242,300.174,46.242z"/>
<g>
	<path d="M372.882,465H191.116C178.351,465,168,454.69,168,441.926v-243.5C168,185.662,178.351,175,191.116,175H270v207h126v59.926
		C396,454.69,385.646,465,372.882,465z M194,439h176v-31H266.566C253.801,408,243,397.244,243,384.48V201h-49V439z"/>
	<g>
		
			<line stroke="#2454C4" stroke-width="0" stroke-linecap="round" stroke-linejoin="round" x1="389.625" y1="112.016" x2="389.625" y2="112.016"/>
		
			<line stroke="#2454C4" stroke-width="0" stroke-linecap="round" stroke-linejoin="round" x1="485.214" y1="225.935" x2="485.214" y2="225.935"/>
		<path d="M446.019,158.909l-13.014-15.272L411.292,118h-11.816h-9.851h-6.932H266.566C253.801,118,243,128.217,243,140.981V384.48
			c0,12.764,10.801,23.52,23.566,23.52h181.767C461.098,408,472,397.244,472,384.48V229.577V220.7v-10.792v-20.346L446.019,158.909z
			 M446,382H270V144h129.3l46.7,54.923V382z"/>
	</g>
	<path d="M406.321,272H314.58c-7.103,0-12.86-5.897-12.86-13s5.758-13,12.86-13h91.741c7.102,0,12.86,5.897,12.86,13
		S413.423,272,406.321,272z"/>
	<path d="M406.321,324H314.58c-7.103,0-12.86-5.896-12.86-13s5.758-13,12.86-13h91.741c7.102,0,12.86,5.896,12.86,13
		S413.423,324,406.321,324z"/>
	<path d="M420,181v-15.366l-27-30.654v48.582C393,196.326,403.673,207,416.437,207h37.041l-21.584-26H420z"/>
</g>
</svg>
