<?xml version="1.0" encoding="utf-8"?>
<!-- Generator: Adobe Illustrator 27.5.0, SVG Export Plug-In . SVG Version: 6.00 Build 0)  -->
<svg version="1.1" id="Ebene_1" xmlns="http://www.w3.org/2000/svg" xmlns:xlink="http://www.w3.org/1999/xlink" x="0px" y="0px"
	 viewBox="0 0 35 35" style="enable-background:new 0 0 35 35;" xml:space="preserve">
<path d="M17.5,6.1c0.4-0.4,0.7-0.9,1.1-1.3C21.3,2,24.7,1,28.4,2.2c3.7,1.2,5.9,3.9,6.4,7.9c0.3,1.9-0.2,3.7-1,5.4
	c-1.2,2.5-2.9,4.7-4.7,6.9c-3.3,3.9-7.1,7.3-11,10.6c-0.5,0.4-0.9,0.4-1.4,0C12.4,29.3,8.2,25.5,4.6,21c-1.6-2-3.1-4.1-4-6.5
	C-1.5,8.8,2.1,2.7,8.1,1.9c3.8-0.5,6.8,0.9,9.1,3.9C17.3,5.9,17.4,6,17.5,6.1C17.4,6.1,17.4,6.1,17.5,6.1z M17.4,31.1
	c0.2-0.1,0.3-0.2,0.3-0.3c2.6-2.2,5.2-4.5,7.5-7c2.2-2.3,4.4-4.8,6-7.6c0.8-1.3,1.5-2.7,1.6-4.2c0.4-3.7-2-7.3-5.6-8.1
	C23.6,3,19.8,5,18.5,8.5c-0.2,0.6-0.5,0.8-1,0.8c-0.5,0-0.8-0.2-1-0.8C15.2,5.1,11.7,3.1,8,3.8c-4.2,0.8-7,5.2-5.8,9.3
	c0.5,1.7,1.4,3.2,2.4,4.6c1.9,2.8,4.2,5.3,6.6,7.6C13.3,27.3,15.3,29.2,17.4,31.1L17.4,31.1z"/>
</svg>
