<?xml version="1.0" encoding="utf-8"?>
<!-- Generator: Adobe Illustrator 27.5.0, SVG Export Plug-In . SVG Version: 6.00 Build 0)  -->
<svg version="1.1" id="Ebene_1" xmlns="http://www.w3.org/2000/svg" xmlns:xlink="http://www.w3.org/1999/xlink" x="0px" y="0px"
	 viewBox="0 0 35 35" style="enable-background:new 0 0 35 35;" xml:space="preserve">
<path d="M17.5,0.8c2.8,0,5.6,0,8.4,0c4.1,0,7.4,2.7,8.1,6.7c0.1,0.5,0.1,1,0.1,1.5c0,5.6,0,11.3,0,16.9c0,4.6-3.6,8.2-8.2,8.2
	c-5.6,0-11.2,0-16.9,0c-4.1,0-7.4-2.7-8.1-6.8c-0.1-0.5-0.1-1-0.1-1.4c0-5.6,0-11.3,0-16.9c0-4.6,3.6-8.2,8.2-8.2
	C11.9,0.8,14.7,0.8,17.5,0.8L17.5,0.8z M17.5,31.6c2.8,0,5.6,0,8.4,0c3.2,0,5.7-2.4,5.7-5.7c0-5.6,0-11.2,0-16.8
	c0-3.3-2.4-5.7-5.7-5.7c-5.6,0-11.2,0-16.8,0c-3.3,0-5.7,2.4-5.7,5.7c0,5.6,0,11.2,0,16.8c0,3.3,2.4,5.7,5.7,5.7
	C11.9,31.6,14.7,31.6,17.5,31.6L17.5,31.6z"/>
<path d="M13.8,15c1.7,0.1,3.1,0.8,4,2.3c0.3,0.6,0.6,1.1,0.9,1.7c0.5,1,1.4,1.2,2.3,0.5c1.6-1.2,3.6-1,5,0.4
	c1.2,1.1,2.3,2.3,3.4,3.4c0.6,0.6,0.6,1.4,0.1,1.9c-0.5,0.5-1.3,0.5-1.9-0.1c-1.1-1.1-2.2-2.2-3.3-3.3c-0.7-0.7-1.2-0.7-1.9-0.2
	c-1.9,1.4-4.6,0.8-5.8-1.3c-0.3-0.5-0.6-1.1-0.9-1.6c-0.9-1.6-2.7-1.7-3.8-0.2c-1.5,2.1-2.9,4.2-4.4,6.3c-0.2,0.3-0.5,0.6-0.9,0.7
	c-0.5,0.1-1-0.1-1.3-0.5c-0.3-0.5-0.3-1,0-1.4C5.9,22.8,6.4,22,7,21.2c1-1.4,1.9-2.8,2.9-4.2C10.8,15.7,12.1,15,13.8,15L13.8,15z"/>
<path d="M23.5,15.3c-2.1,0-3.8-1.7-3.8-3.8c0-2.1,1.7-3.8,3.8-3.9c2.1,0,3.8,1.7,3.9,3.8C27.3,13.6,25.6,15.3,23.5,15.3L23.5,15.3z
	 M23.5,12.8c0.7,0,1.3-0.6,1.3-1.3c0-0.7-0.6-1.3-1.3-1.3c-0.7,0-1.3,0.6-1.3,1.3C22.2,12.2,22.8,12.8,23.5,12.8L23.5,12.8z"/>
</svg>
