<?xml version="1.0" encoding="utf-8"?>
<!-- Generator: Adobe Illustrator 16.0.0, SVG Export Plug-In . SVG Version: 6.00 Build 0)  -->
<!DOCTYPE svg PUBLIC "-//W3C//DTD SVG 1.1//EN" "http://www.w3.org/Graphics/SVG/1.1/DTD/svg11.dtd">
<svg version="1.1" id="Ebene_1" xmlns="http://www.w3.org/2000/svg" xmlns:xlink="http://www.w3.org/1999/xlink" x="0px" y="0px"
	 width="600px" height="600px" viewBox="0 0 600 600" enable-background="new 0 0 600 600" xml:space="preserve">
<path fill="#2454C4" d="M300.174,588.621c-77.682,0-150.714-30.251-205.645-85.181C39.601,448.511,9.35,375.479,9.35,297.796
	c0-77.683,30.251-150.715,85.18-205.645c54.93-54.929,127.963-85.18,205.645-85.18c77.681,0,150.714,30.251,205.644,85.18
	c54.929,54.93,85.181,127.962,85.181,205.645c0,77.682-30.252,150.714-85.181,205.644
	C450.889,558.37,377.855,588.621,300.174,588.621z M300.174,46.242c-138.707,0-251.554,112.847-251.554,251.554
	S161.467,549.35,300.174,549.35c138.707,0,251.553-112.846,251.553-251.553S438.881,46.242,300.174,46.242z"/>
<path fill="#2454C4" d="M436.782,169H357v-19.837C357,133.091,343.75,120,327.679,120H272.62c-16.072,0-28.62,13.091-28.62,29.163
	V169h-80.484c-8.748,0-15.516,6.475-15.516,13.63V215h305v-32.37C453,175.475,445.53,169,436.782,169z M276,152h49v17h-49V152z"/>
<path fill="#2454C4" d="M165.519,237l34.52,229.013c0,7.949,7.421,13.987,16.57,13.987h167.081c9.149,0,16.569-6.038,16.569-13.987
	L434.78,237H165.519z M244.275,441.694c-0.273,0.021-0.545,0.03-0.815,0.03c-5.597,0-10.331-4.318-10.755-9.993l-10.795-144.66
	c-0.442-5.946,4.017-11.125,9.963-11.569c5.931-0.45,11.125,4.016,11.569,9.962l10.796,144.661
	C254.681,436.07,250.221,441.251,244.275,441.694z M311,430.928c0,5.965-4.037,10.797-10,10.797c-5.962,0-10-4.832-10-10.797
	v-144.66c0-5.962,4.038-10.796,10-10.796c5.963,0,10,4.833,10,10.796V430.928z M378.388,287.071l-10.796,144.66
	c-0.424,5.673-5.157,9.993-10.754,9.993c-0.271,0-0.542-0.01-0.815-0.03c-5.946-0.443-10.405-5.624-9.962-11.569l10.795-144.661
	c0.443-5.945,5.62-10.413,11.569-9.962C374.371,275.946,378.83,281.125,378.388,287.071z"/>
</svg>