<?xml version="1.0" encoding="utf-8"?>
<!-- Generator: Adobe Illustrator 27.5.0, SVG Export Plug-In . SVG Version: 6.00 Build 0)  -->
<svg version="1.1" id="Ebene_1" xmlns="http://www.w3.org/2000/svg" xmlns:xlink="http://www.w3.org/1999/xlink" x="0px" y="0px"
	 viewBox="0 0 35 35" style="enable-background:new 0 0 35 35;" xml:space="preserve" fill="#2454C4">
<path d="M30.9,16.9c-1.4-1.6-2.9-3.1-4.6-4.3c-0.6-0.4-1.1-0.8-1.7-1.1l2.8-3.6c0.4-0.6,0.3-1.3-0.2-1.7s-1.3-0.3-1.7,0.2l-3,3.9
	c-0.7-0.3-1.3-0.6-2.1-0.7c-1.8-0.5-3.5-0.5-5.3-0.1c-2.3,0.6-4.3,1.7-6.2,3.1c-1.7,1.3-3.2,2.8-4.6,4.4c-0.6,0.6-0.6,1.3,0,1.9
	c0.2,0.3,0.6,0.6,0.8,0.9c1.9,2,3.9,3.8,6.3,5.1c0,0,0.1,0,0.1,0.1l-1.7,2.3c-0.4,0.6-0.3,1.3,0.2,1.7c0.2,0.2,0.5,0.2,0.7,0.2
	c0.4,0,0.7-0.2,0.9-0.5l2-2.7c1.3,0.4,2.5,0.7,3.9,0.7v0.1c0.9-0.1,1.7-0.2,2.4-0.4c2.3-0.5,4.2-1.6,6.1-2.9
	c1.7-1.3,3.3-2.8,4.7-4.5C31.5,18.2,31.5,17.6,30.9,16.9L30.9,16.9z M9.4,21.5c-1.3-1-2.5-2.3-3.7-3.5c-0.1-0.1-0.1-0.2,0-0.2
	c2-2.1,4.1-4.1,6.7-5.4c1.7-0.9,3.5-1.4,5.5-1.3c1.2,0.1,2.4,0.3,3.5,0.8l-1.3,1.7c-0.8-0.5-1.7-0.7-2.7-0.7c-2.8,0-5.2,2.4-5.2,5.2
	c0,1.4,0.6,2.8,1.6,3.7l-1.4,1.9C11.3,22.9,10.4,22.3,9.4,21.5L9.4,21.5z M21,17.9c0,1.9-1.6,3.5-3.5,3.5c-0.2,0-0.2,0-0.4,0
	l3.6-4.8C20.9,17,21,17.4,21,17.9L21,17.9z M14,17.9c0-1.9,1.6-3.5,3.5-3.5c0.6,0,1.1,0.2,1.6,0.4l-4.2,5.4
	C14.4,19.5,14,18.8,14,17.9L14,17.9z M28,19.4c-1.3,1.3-2.8,2.5-4.4,3.5c-1.5,0.9-3,1.6-4.7,1.8c-1.4,0.2-2.8,0.1-4.2-0.3l1.2-1.6
	c0.6,0.2,1,0.2,1.7,0.2c2.8,0,5.2-2.4,5.2-5.2c0-1-0.3-2-0.9-2.8l1.7-2.2c1.8,1.1,3.4,2.4,4.8,3.9c0.3,0.4,0.7,0.7,1.1,1.1
	C29,18.4,28.5,18.9,28,19.4z"/>
<path d="M17.5,2C26,2,33,9,33,17.5S26,33,17.5,33S2,26,2,17.5S9,2,17.5,2 M17.5,0C7.8,0,0,7.8,0,17.5S7.8,35,17.5,35
	S35,27.2,35,17.5S27.2,0,17.5,0L17.5,0z"/>
</svg>
