<?xml version="1.0" encoding="utf-8"?>
<!-- Generator: Adobe Illustrator 16.0.0, SVG Export Plug-In . SVG Version: 6.00 Build 0)  -->
<!DOCTYPE svg PUBLIC "-//W3C//DTD SVG 1.1//EN" "http://www.w3.org/Graphics/SVG/1.1/DTD/svg11.dtd">
<svg version="1.1" id="Ebene_1" xmlns="http://www.w3.org/2000/svg" xmlns:xlink="http://www.w3.org/1999/xlink" x="0px" y="0px"
	 width="600px" height="600px" viewBox="0 0 600 600" enable-background="new 0 0 600 600" xml:space="preserve">
<circle fill="#FFFFFF" cx="299.873" cy="220.669" r="69.085"/>
<g>
	<path fill="#FFFFFF" d="M419.181,477.269c3.885-13.378,5.99-27.639,5.99-42.445c0-57.918-32.097-107.533-77.679-128.275
		c-13.152,10.227-29.667,16.332-47.618,16.332c-17.95,0-34.465-6.105-47.618-16.332c-45.581,20.742-77.678,70.357-77.678,128.275
		c0,14.668,2.065,28.802,5.879,42.07c35.673,19.204,76.442,30.117,119.716,30.117C343.163,507.011,383.677,496.237,419.181,477.269z
		"/>
</g>
<path fill="#FFFFFF" d="M300.174,588.621c-77.682,0-150.714-30.251-205.645-85.181C39.601,448.511,9.35,375.479,9.35,297.796
	c0-77.683,30.251-150.715,85.18-205.645c54.93-54.929,127.963-85.18,205.645-85.18c77.681,0,150.714,30.251,205.644,85.18
	c54.929,54.93,85.181,127.962,85.181,205.645c0,77.682-30.252,150.714-85.181,205.644
	C450.889,558.37,377.855,588.621,300.174,588.621z M300.174,46.242c-138.707,0-251.554,112.847-251.554,251.554
	S161.467,549.35,300.174,549.35c138.707,0,251.553-112.846,251.553-251.553S438.881,46.242,300.174,46.242z"/>
</svg>
