<?xml version="1.0" encoding="utf-8"?>
<!-- Generator: Adobe Illustrator 16.0.0, SVG Export Plug-In . SVG Version: 6.00 Build 0)  -->
<!DOCTYPE svg PUBLIC "-//W3C//DTD SVG 1.1//EN" "http://www.w3.org/Graphics/SVG/1.1/DTD/svg11.dtd">
<svg version="1.1" id="Ebene_1" xmlns="http://www.w3.org/2000/svg" xmlns:xlink="http://www.w3.org/1999/xlink" x="0px" y="0px"
	 width="600px" height="600px" viewBox="0 0 600 600" enable-background="new 0 0 600 600" xml:space="preserve">
<path fill="#2454C4" d="M300.174,588.621c-77.682,0-150.714-30.251-205.645-85.181C39.601,448.511,9.35,375.479,9.35,297.796
	c0-77.683,30.251-150.715,85.18-205.645c54.93-54.929,127.963-85.18,205.645-85.18c77.681,0,150.714,30.251,205.644,85.18
	c54.929,54.93,85.181,127.962,85.181,205.645c0,77.682-30.252,150.714-85.181,205.644
	C450.889,558.37,377.855,588.621,300.174,588.621z M300.174,46.242c-138.707,0-251.554,112.847-251.554,251.554
	S161.467,549.35,300.174,549.35c138.707,0,251.553-112.846,251.553-251.553S438.881,46.242,300.174,46.242z"/>
<path fill="#2454C4" d="M405.359,171.428L300,276.787L194.641,171.428c-5.858-5.857-15.355-5.857-21.213,0
	c-5.857,5.858-5.857,15.355,0,21.213L278.787,298L173.428,403.359c-5.857,5.857-5.857,15.354,0,21.213
	c5.858,5.857,15.355,5.857,21.213,0L300,319.213l105.359,105.359c5.857,5.857,15.354,5.857,21.213,0
	c5.857-5.858,5.857-15.355,0-21.213L321.213,298l105.359-105.359c5.857-5.858,5.857-15.355,0-21.213
	C420.714,165.57,411.217,165.57,405.359,171.428z"/>
</svg>
