<?xml version="1.0" encoding="utf-8"?>
<!-- Generator: Adobe Illustrator 16.0.0, SVG Export Plug-In . SVG Version: 6.00 Build 0)  -->
<!DOCTYPE svg PUBLIC "-//W3C//DTD SVG 1.1//EN" "http://www.w3.org/Graphics/SVG/1.1/DTD/svg11.dtd">
<svg version="1.1" id="Ebene_1" xmlns="http://www.w3.org/2000/svg" xmlns:xlink="http://www.w3.org/1999/xlink" x="0px" y="0px"
	 width="600px" height="600px" viewBox="0 0 600 600" enable-background="new 0 0 600 600" xml:space="preserve">
<path fill="#FFFFFF" d="M300.174,588.621c-77.682,0-150.714-30.251-205.645-85.181C39.601,448.511,9.35,375.479,9.35,297.796
	c0-77.683,30.251-150.715,85.18-205.645c54.93-54.929,127.963-85.18,205.645-85.18c77.681,0,150.714,30.251,205.644,85.18
	c54.929,54.93,85.181,127.962,85.181,205.645c0,77.682-30.252,150.714-85.181,205.644
	C450.889,558.37,377.855,588.621,300.174,588.621z M300.174,46.242c-138.707,0-251.554,112.847-251.554,251.554
	S161.467,549.35,300.174,549.35c138.707,0,251.553-112.846,251.553-251.553S438.881,46.242,300.174,46.242z"/>
<path fill="#FFFFFF" d="M380.631,139.603L180.705,339.53l0.396,0.396c-1.73,1.729-2.995,3.926-3.611,6.408l-21.03,84.676
	c-1.228,4.945,0.299,10.272,4.007,13.981c3.708,3.708,9.036,5.235,13.981,4.007l84.676-21.029c2.482-0.616,4.679-1.88,6.41-3.61
	l0.396,0.396l199.926-199.927c9.922-9.921,9.6-26.386-0.715-36.702l-47.811-47.809C407.018,130.002,390.554,129.682,380.631,139.603
	z M227.116,405.934l-36.704,9.115l9.115-36.705L227.116,405.934z M443.071,206.042L255.14,393.973l-43.651-43.652L399.419,162.39
	L443.071,206.042z"/>
</svg>
