<?xml version="1.0" encoding="utf-8"?>
<!-- Generator: Adobe Illustrator 27.5.0, SVG Export Plug-In . SVG Version: 6.00 Build 0)  -->
<svg version="1.1" id="Ebene_1" xmlns="http://www.w3.org/2000/svg" xmlns:xlink="http://www.w3.org/1999/xlink" x="0px" y="0px"
	 viewBox="0 0 35 35" style="enable-background:new 0 0 35 35;" xml:space="preserve">
<path d="M17.5,26.3c-2.5,0-4.9,0-7.4,0c-1.8,0-3.2-1.2-3.7-2.9c-0.1-0.3-0.1-0.6-0.1-0.9c0-3.3,0-6.5,0-9.8c0-1.6,0.8-2.8,2.3-3.4
	C8.8,9.3,8.8,9.2,8.8,9c0-4,2.7-7.4,6.6-8.4c4.6-1.2,9.3,1.7,10.5,6.3c0.2,0.7,0.3,1.4,0.3,2.1c0,0.1,0,0.2,0.2,0.3
	c1.5,0.7,2.3,1.9,2.3,3.5c0,3.3,0,6.5,0,9.8c0,1.7-1.2,3.2-2.9,3.6c-0.3,0.1-0.6,0.1-0.9,0.1C22.4,26.4,20,26.3,17.5,26.3z
	 M17.5,23.9c2.4,0,4.9,0,7.3,0c0.8,0,1.3-0.5,1.3-1.3c0-3.2,0-6.5,0-9.7c0-0.1,0-0.2,0-0.3c-0.1-0.6-0.6-1-1.3-1
	c-4.9,0-9.8,0-14.6,0c-0.8,0-1.3,0.5-1.3,1.4c0,3.2,0,6.4,0,9.6c0,0.9,0.5,1.4,1.4,1.4C12.7,23.9,15.1,23.9,17.5,23.9L17.5,23.9z
	 M23.7,9c-0.1-2.3-1.1-4.1-3-5.3c-2.1-1.3-4.9-1.2-6.8,0.3c-1.6,1.2-2.4,2.9-2.5,5H23.7L23.7,9z"/>
<path d="M11,30.5c0.3-0.1,0.6-0.2,0.9-0.3c0.2-0.1,0.5-0.2,0.7-0.2c0.2-0.1,0.4,0,0.6,0.1c0.2,0.2,0.3,0.5,0.3,0.8
	c0,0.3-0.2,0.5-0.5,0.6c-0.5,0.1-1,0.2-1.5,0.4c0.2,0.3,0.4,0.6,0.7,1c0.1,0.2,0.2,0.3,0.3,0.5c0.4,0.5,0,1.2-0.6,1.3
	c-0.3,0-0.5-0.1-0.7-0.3c-0.3-0.4-0.6-0.8-0.8-1.3c0,0-0.1-0.1-0.1-0.1c-0.1,0.1-0.1,0.1-0.1,0.2c-0.3,0.4-0.5,0.8-0.8,1.2
	c-0.2,0.3-0.5,0.4-0.8,0.3c-0.4-0.1-0.7-0.4-0.7-0.7c0-0.2,0.1-0.3,0.1-0.5C8.3,33,8.6,32.5,9,32c-0.1,0-0.2-0.1-0.2-0.1
	c-0.4-0.1-0.8-0.2-1.2-0.4c-0.5-0.1-0.7-0.5-0.5-1c0.2-0.5,0.5-0.7,1-0.6c0.5,0.1,0.9,0.3,1.4,0.4c0,0,0.1,0,0.1,0c0-0.3,0-0.6,0-1
	c0-0.1,0-0.3,0-0.4c-0.1-0.7,0.6-0.9,1.1-0.8c0.3,0.1,0.5,0.3,0.5,0.7c0,0.4,0,0.9-0.1,1.3C11,30.4,11,30.5,11,30.5L11,30.5z"/>
<path d="M23.5,32c-0.1,0-0.2-0.1-0.3-0.1c-0.4-0.1-0.8-0.2-1.1-0.3c-0.5-0.1-0.6-0.5-0.5-1c0.2-0.5,0.5-0.7,1-0.5
	c0.5,0.2,1,0.3,1.5,0.5c0-0.1,0-0.2,0-0.2c0-0.4-0.1-0.8-0.1-1.1c0-0.6,0.5-1,1.1-0.8c0.3,0.1,0.5,0.3,0.5,0.7c0,0.4,0,0.9,0,1.3
	c0,0.1,0,0.1,0,0.2c0.3-0.1,0.6-0.2,0.9-0.3c0.2-0.1,0.5-0.2,0.7-0.2c0.3-0.1,0.6,0,0.7,0.2c0.1,0.2,0.2,0.4,0.2,0.6
	c0.1,0.4-0.1,0.6-0.5,0.7c-0.4,0.1-0.9,0.2-1.3,0.3c0,0-0.1,0-0.2,0.1c0.1,0.2,0.2,0.3,0.3,0.5c0.2,0.3,0.5,0.7,0.7,1
	c0.3,0.4,0.2,0.8-0.3,1.1c-0.4,0.3-0.8,0.2-1.1-0.2c-0.3-0.4-0.5-0.8-0.8-1.2c0,0-0.1-0.1-0.1-0.2c-0.1,0.1-0.2,0.3-0.3,0.4
	c-0.2,0.3-0.4,0.7-0.7,1c-0.2,0.3-0.4,0.4-0.8,0.3c-0.4-0.1-0.7-0.4-0.7-0.7c0-0.2,0-0.3,0.1-0.5C22.8,33,23.2,32.5,23.5,32L23.5,32
	z"/>
<path d="M17.5,32.9c-0.2,0.3-0.3,0.5-0.5,0.7c-0.2,0.2-0.3,0.5-0.5,0.7c-0.2,0.3-0.5,0.4-0.8,0.3c-0.4-0.1-0.7-0.4-0.7-0.8
	c0-0.1,0-0.2,0.1-0.3c0.3-0.5,0.7-1,1.1-1.5c-0.1,0-0.1-0.1-0.2-0.1c-0.4-0.1-0.8-0.2-1.2-0.3c-0.4-0.1-0.6-0.3-0.6-0.7
	c0-0.4,0.2-0.8,0.5-0.9c0.2-0.1,0.4,0,0.6,0c0.5,0.1,0.9,0.3,1.4,0.4c0,0,0.1,0,0.1,0c0-0.2,0-0.3,0-0.4c0-0.3,0-0.6-0.1-1
	c0-0.4,0.2-0.7,0.5-0.8c0.4-0.1,0.8,0,1,0.3c0.1,0.2,0.1,0.3,0.1,0.5c0,0.4,0,0.8,0,1.2c0,0.1,0,0.1,0,0.2c0.3-0.1,0.6-0.2,0.9-0.3
	c0.2-0.1,0.4-0.1,0.5-0.2c0.6-0.2,1,0.1,1.1,0.7c0.1,0.4-0.1,0.7-0.5,0.8c-0.4,0.1-0.9,0.2-1.3,0.3c0,0-0.1,0-0.2,0.1
	c0.2,0.3,0.4,0.6,0.6,0.9c0.1,0.2,0.3,0.4,0.4,0.5c0.4,0.5,0,1.2-0.6,1.3c-0.3,0-0.6-0.1-0.7-0.3c-0.3-0.4-0.5-0.8-0.8-1.3
	C17.6,33,17.5,32.9,17.5,32.9L17.5,32.9z"/>
<path d="M16.3,19.5c0-0.2,0-0.5,0-0.7c0-0.1,0-0.2-0.1-0.2c-0.8-0.6-1.2-1.4-1.1-2.4c0.2-1,0.8-1.7,1.7-2c1.1-0.4,2.4,0.2,2.9,1.2
	c0.5,1.1,0.3,2.4-0.7,3.1c-0.2,0.1-0.3,0.3-0.3,0.5c0,0.4,0,0.8,0,1.2c0,0.7-0.6,1.3-1.2,1.3c-0.7,0-1.2-0.6-1.2-1.3
	C16.3,19.9,16.3,19.7,16.3,19.5L16.3,19.5z"/>
</svg>
