<?xml version="1.0" encoding="utf-8"?>
<!-- Generator: Adobe Illustrator 27.5.0, SVG Export Plug-In . SVG Version: 6.00 Build 0)  -->
<svg version="1.1" id="Ebene_1" xmlns="http://www.w3.org/2000/svg" xmlns:xlink="http://www.w3.org/1999/xlink" x="0px" y="0px"
	 viewBox="0 0 35 35" style="enable-background:new 0 0 35 35;" xml:space="preserve">
<g>
	<path d="M17.5,29c-4.4,0-8.7,0-13.1,0c-1.9,0-3.5-1.3-4-3.1c-0.1-0.3-0.1-0.6-0.1-0.9c0-5,0-10.1,0-15.1C0.2,8,2,6.1,4,6
		c0.5,0,1.1,0,1.6,0c8.3,0,16.5,0,24.8,0c2,0,3.7,1.2,4.2,3.1c0.1,0.3,0.1,0.6,0.1,0.9c0,5,0,9.9,0,14.9c0,2.4-1.8,4.2-4.2,4.2
		C26.2,29,21.8,29,17.5,29L17.5,29L17.5,29z M17.5,15L17.5,15c-4.9,0-9.8,0-14.6,0c-0.3,0-0.4,0-0.4,0.3c0,3.2,0,6.3,0,9.5
		c0,0.2,0,0.4,0.1,0.5c0.2,0.9,0.9,1.4,2.1,1.4c8.6,0,17.1,0,25.7,0c0.1,0,0.3,0,0.4,0c0.7,0,1.3-0.4,1.6-1c0.1-0.3,0.2-0.7,0.2-1.1
		c0-3.1,0-6.3,0-9.4c0-0.3-0.2-0.3-0.4-0.3C27.3,15,22.4,15,17.5,15L17.5,15z M17.5,11.7L17.5,11.7c4.7,0,9.3,0,14,0
		c0.3,0,0.5,0,0.8,0c0.2,0,0.2-0.1,0.2-0.2c0-0.5,0-1,0-1.4c0-0.4-0.2-0.8-0.5-1.2c-0.4-0.5-1-0.6-1.6-0.6c-8.3,0-16.6,0-24.9,0
		c-0.4,0-0.8,0-1.2,0c-1,0-1.7,0.8-1.8,1.8c0,0.4,0,0.8,0,1.2c0,0.4,0,0.4,0.4,0.4C7.8,11.7,12.6,11.7,17.5,11.7L17.5,11.7z"/>
	<path d="M23.7,21.8c0-0.4,0-0.7,0-1.1c0.1-1,0.9-1.8,1.8-1.8c0.6,0,1.3,0,2,0c1,0,1.8,0.7,1.9,1.7c0.1,0.8,0.1,1.7,0,2.5
		c-0.1,0.9-0.9,1.5-1.8,1.6c-0.6,0-1.3,0-1.9,0c-1.1,0-1.9-0.8-1.9-1.9C23.7,22.4,23.7,22.1,23.7,21.8L23.7,21.8L23.7,21.8z"/>
	<path d="M8.5,22.6c1,0,2,0,3,0c0.3,0,0.5,0.2,0.5,0.5c0,0.4,0,0.7,0,1.1c0,0.3-0.2,0.4-0.5,0.4c-2,0-4.1,0-6.1,0
		c-0.4,0-0.5-0.1-0.5-0.5c0-0.3,0-0.7,0-1c0-0.4,0.1-0.5,0.5-0.5C6.5,22.6,7.5,22.6,8.5,22.6L8.5,22.6z"/>
</g>
</svg>
