<?xml version="1.0" encoding="utf-8"?>
<!-- Generator: Adobe Illustrator 27.5.0, SVG Export Plug-In . SVG Version: 6.00 Build 0)  -->
<svg version="1.1" id="Ebene_1" xmlns="http://www.w3.org/2000/svg" xmlns:xlink="http://www.w3.org/1999/xlink" x="0px" y="0px"
	 viewBox="0 0 35 35" style="enable-background:new 0 0 35 35;" xml:space="preserve">
<path d="M26,34.3c-0.6,0-1.2-0.2-1.8-0.5c-2-1.1-4-2.1-6-3.2c-0.4-0.2-0.8-0.2-1.3,0c-2,1.1-4.1,2.2-6.1,3.2
	c-1.4,0.7-2.7,0.6-3.9-0.3c-1.2-0.9-1.7-2.1-1.4-3.6c0.4-2.3,0.8-4.6,1.2-7c0.1-0.4-0.1-0.7-0.3-0.9c-1.2-1.2-2.4-2.3-3.6-3.5
	c-0.5-0.5-1.1-1-1.6-1.6c-1-1.1-1.2-2.4-0.7-3.8c0.5-1.4,1.6-2.2,3-2.4c2-0.3,4-0.6,5.9-0.9c0.3,0,0.6-0.1,0.9-0.1
	c0.4-0.1,0.7-0.3,0.9-0.7c1-2.1,2-4.1,3.1-6.2c0.7-1.4,1.8-2.1,3.3-2.1c1.5,0,2.7,0.7,3.4,2.1C21.9,5,23,7.1,24,9.1
	c0.2,0.4,0.5,0.6,1,0.7c2.3,0.3,4.7,0.6,7,1c1.4,0.2,2.4,1.1,2.8,2.5c0.4,1.4,0.2,2.7-0.9,3.7c-1.6,1.6-3.2,3.2-4.9,4.8
	c-0.4,0.4-0.6,0.9-0.5,1.5c0.4,2.2,0.8,4.5,1.2,6.7C30.1,32.3,28.3,34.3,26,34.3L26,34.3z M32.3,14.5c0-0.5-0.4-0.9-0.9-1
	c-0.4-0.1-0.7-0.1-1.1-0.2c-1.9-0.3-3.8-0.6-5.7-0.8c-1.4-0.2-2.5-0.9-3.1-2.2c-1-2-2-4.1-3-6.1c-0.1-0.2-0.3-0.4-0.5-0.5
	c-0.6-0.3-1.2-0.1-1.5,0.6c-1,2.1-2,4.2-3.1,6.2c-0.6,1.1-1.5,1.8-2.8,2c-2.3,0.3-4.7,0.7-7,1c-0.4,0.1-0.7,0.3-0.8,0.7
	c-0.1,0.4-0.1,0.8,0.2,1.1c0.2,0.2,0.4,0.4,0.6,0.6c1.4,1.4,2.8,2.7,4.2,4.1c0.9,0.8,1.5,1.8,1.4,3.1c0,0.5-0.1,1-0.2,1.5
	c-0.3,2-0.7,4-1,5.9c-0.1,0.5,0.1,0.8,0.4,1.1c0.4,0.3,0.7,0.2,1.1,0c2-1.1,4-2.1,6.1-3.2c1.2-0.7,2.5-0.7,3.7,0c2,1.1,4,2.1,6,3.2
	c0.4,0.2,0.8,0.2,1.2,0c0.4-0.3,0.5-0.6,0.4-1.1c-0.4-2.2-0.8-4.5-1.2-6.7c-0.2-1.3,0-2.4,1-3.4c0.5-0.5,1-1,1.6-1.5
	c1.2-1.2,2.4-2.3,3.6-3.5C32.2,15,32.3,14.8,32.3,14.5L32.3,14.5z"/>
</svg>
