<?xml version="1.0" encoding="utf-8"?>
<!-- Generator: Adobe Illustrator 16.0.0, SVG Export Plug-In . SVG Version: 6.00 Build 0)  -->
<!DOCTYPE svg PUBLIC "-//W3C//DTD SVG 1.1//EN" "http://www.w3.org/Graphics/SVG/1.1/DTD/svg11.dtd">
<svg version="1.1" id="Ebene_1" xmlns="http://www.w3.org/2000/svg" xmlns:xlink="http://www.w3.org/1999/xlink" x="0px" y="0px"
	 width="600px" height="600px" viewBox="0 0 600 600" enable-background="new 0 0 600 600" xml:space="preserve">
<path fill="#FFFFFF" d="M300.174,588.621c-77.682,0-150.714-30.251-205.645-85.181C39.601,448.511,9.35,375.479,9.35,297.796
	c0-77.683,30.251-150.715,85.18-205.645c54.93-54.929,127.963-85.18,205.645-85.18c77.681,0,150.714,30.251,205.644,85.18
	c54.929,54.93,85.181,127.962,85.181,205.645c0,77.682-30.252,150.714-85.181,205.644
	C450.889,558.37,377.855,588.621,300.174,588.621z M300.174,46.242c-138.707,0-251.554,112.847-251.554,251.554
	S161.467,549.35,300.174,549.35c138.707,0,251.553-112.846,251.553-251.553S438.881,46.242,300.174,46.242z"/>
<g>
	<path fill-rule="evenodd" clip-rule="evenodd" fill="#FFFFFF" d="M206.874,162.065c0,2.362,0.001,4.291,0,6.221
		c-0.021,25.373-0.04,50.746-0.063,76.119c-0.01,10.656,6.475,17.261,17.097,17.267c38.577,0.023,77.154,0.027,115.73,0.005
		c11.128-0.006,17.552-6.445,17.562-17.543c0.022-25.947,0.014-51.895,0.018-77.842c0-1.246,0-2.493,0-4.207
		c6.129,0,11.948-0.069,17.761,0.077c0.84,0.021,1.762,0.962,2.464,1.661c19.261,19.207,38.52,38.416,57.684,57.718
		c1.062,1.069,1.854,2.944,1.856,4.446c0.086,64.753,0.087,129.507,0.045,194.26c-0.007,9.328-6.524,15.847-15.844,15.852
		c-80.712,0.036-161.425,0.04-242.137,0.005c-10.12-0.005-16.077-6.356-16.083-16.938c-0.027-39.036-0.011-78.071-0.011-117.106
		c0-40.644-0.001-81.288,0-121.931c0.002-12.299,5.783-18.046,18.178-18.062C189.495,162.057,197.859,162.065,206.874,162.065z
		 M300.118,410.22c0,0.015,0,0.029,0,0.043c28.126,0,56.252-0.001,84.379,0.002c8.352,0,10.837-2.387,10.839-10.481
		c0.006-34.656,0.008-69.312,0.005-103.968c0-7.192-2.778-9.987-9.958-9.988c-56.941-0.006-113.883-0.009-170.824-0.006
		c-7.213,0.001-10.04,2.788-10.042,9.963c-0.006,34.888,0.003,69.775,0.026,104.663c0.005,7.079,2.753,9.771,9.818,9.771
		C242.948,410.221,271.533,410.22,300.118,410.22z"/>
	<path fill-rule="evenodd" clip-rule="evenodd" fill="#FFFFFF" d="M282.061,247.845c-12.973,0-25.946,0.015-38.92-0.007
		c-6.259-0.01-9.004-2.774-9.007-9.046c-0.012-21.01-0.013-42.021,0.002-63.031c0.002-6.003,2.826-8.841,8.852-8.845
		c26.062-0.02,52.124-0.02,78.186,0.001c5.831,0.004,8.614,2.805,8.622,8.696c0.024,21.125,0.022,42.25-0.004,63.375
		c-0.008,6.143-2.701,8.823-8.811,8.835c-12.973,0.024-25.946,0.007-38.921,0.007C282.061,247.835,282.061,247.84,282.061,247.845z"
		/>
	<path fill-rule="evenodd" clip-rule="evenodd" fill="#FFFFFF" d="M299.826,314.184c21.545,0,43.088-0.01,64.634,0.008
		c5.023,0.003,8.441,2.86,8.819,7.261c0.436,5.081-3.042,8.87-8.596,8.946c-9.166,0.128-18.335,0.032-27.502,0.035
		c-16.278,0.003-32.557,0.025-48.835,0.006c-14.671-0.018-29.341-0.089-44.012-0.115c-3.325-0.007-6.66,0.251-9.973,0.071
		c-4.735-0.256-7.911-3.786-7.826-8.33c0.083-4.477,3.518-7.853,8.294-7.861C256.495,314.159,278.161,314.184,299.826,314.184z"/>
	<path fill-rule="evenodd" clip-rule="evenodd" fill="#FFFFFF" d="M299.884,365.719c21.46,0.003,42.919-0.016,64.379,0.016
		c5.684,0.009,9.075,3.117,9.044,8.089c-0.025,4.086-2.645,7.228-6.708,7.89c-1.348,0.22-2.74,0.229-4.111,0.229
		c-42.002,0.011-84.004-0.005-126.005,0.028c-4.083,0.003-7.552-0.911-9.289-5.032c-1.33-3.156-1.051-6.469,1.576-8.514
		c1.978-1.54,4.907-2.573,7.424-2.597C257.422,365.629,278.653,365.714,299.884,365.719z"/>
</g>
</svg>
