<?xml version="1.0" encoding="utf-8"?>
<!-- Generator: Adobe Illustrator 27.5.0, SVG Export Plug-In . SVG Version: 6.00 Build 0)  -->
<svg version="1.1" id="Ebene_1" xmlns="http://www.w3.org/2000/svg" xmlns:xlink="http://www.w3.org/1999/xlink" x="0px" y="0px"
	 viewBox="0 0 35 35" style="enable-background:new 0 0 35 35;" xml:space="preserve" fill="#ffffff">
<path d="M17.5,2C26,2,33,9,33,17.5S26,33,17.5,33S2,26,2,17.5S9,2,17.5,2 M17.5,0C7.8,0,0,7.8,0,17.5S7.8,35,17.5,35
	S35,27.2,35,17.5S27.2,0,17.5,0L17.5,0z"/>
<g>
	<path d="M10.2,16c0.1,0,0.1,0,0.1,0c5.8,0,11.7,0,17.5,0c0.2,0,0.5,0,0.7,0.1c0.6,0.2,0.9,0.5,1.1,1.1c0.1,0.6,0,1.1-0.5,1.5
		c-0.3,0.2-0.7,0.3-1,0.3c-1.4,0-2.9,0-4.3,0c-4.4,0-8.8,0-13.2,0c-0.1,0-0.2,0-0.4,0c0,0.1,0.1,0.1,0.1,0.1
		c0.6,0.7,1.2,1.4,1.7,2.1c1,1.2,2,2.4,3,3.6c0.2,0.3,0.4,0.5,0.6,0.8c0.7,0.8,0.4,2.1-0.8,2.4c-0.6,0.1-1.1,0-1.5-0.4
		c-0.3-0.3-0.5-0.6-0.8-0.9c-0.4-0.5-0.9-1-1.3-1.5c-0.9-1-1.7-2.1-2.6-3.1C7.9,21,7,20,6.1,18.9c-0.2-0.2-0.4-0.5-0.6-0.8
		c0-0.1-0.1-0.1-0.1-0.2c-0.1-0.3-0.1-0.6,0-0.9c0,0,0-0.1,0-0.1c0.2-0.3,0.4-0.7,0.7-1c0.8-0.9,1.5-1.8,2.3-2.7
		c1.1-1.3,2.1-2.5,3.2-3.8c0.6-0.7,1.1-1.4,1.7-2c0.4-0.5,1-0.6,1.5-0.5c0.6,0.2,1,0.6,1.1,1.2c0.1,0.4,0,0.8-0.3,1.2
		c-0.9,1.1-1.8,2.2-2.8,3.3C12,13.8,11.1,14.8,10.2,16C10.2,15.9,10.2,15.9,10.2,16z"/>
</g>
</svg>
