<?xml version="1.0" encoding="utf-8"?>
<!-- Generator: Adobe Illustrator 27.5.0, SVG Export Plug-In . SVG Version: 6.00 Build 0)  -->
<svg version="1.1" id="Ebene_1" xmlns="http://www.w3.org/2000/svg" xmlns:xlink="http://www.w3.org/1999/xlink" x="0px" y="0px"
	 viewBox="0 0 35 35" style="enable-background:new 0 0 35 35;" xml:space="preserve">
<path d="M17.5,6.3c0.4-0.4,0.7-0.9,1-1.3c2.7-2.8,6-3.8,9.7-2.5c3.7,1.2,5.8,3.9,6.4,7.7c0.3,1.9-0.2,3.7-1,5.4
	c-1.2,2.5-2.8,4.7-4.6,6.8c-3.3,3.8-7,7.2-10.8,10.4c-0.5,0.4-0.9,0.4-1.4,0c-4.3-3.6-8.4-7.4-12-11.7c-1.6-2-3-4-3.9-6.4
	C-1.2,8.9,2.3,2.9,8.3,2.1C12,1.6,15,2.9,17.2,6C17.3,6,17.4,6.1,17.5,6.3C17.4,6.3,17.4,6.3,17.5,6.3z"/>
</svg>
