<?xml version="1.0" encoding="UTF-8" standalone="no" ?>
<!DOCTYPE svg PUBLIC "-//W3C//DTD SVG 1.1//EN" "http://www.w3.org/Graphics/SVG/1.1/DTD/svg11.dtd">
<svg xmlns="http://www.w3.org/2000/svg" xmlns:xlink="http://www.w3.org/1999/xlink" version="1.1" width="500" height="500" viewBox="0 0 500 500" xml:space="preserve">
<desc>Created with Fabric.js 5.3.0</desc>
<defs>
</defs>
<g transform="matrix(0.9110794354 0 0 0.9289433609 197.3644851671 251.0981771805)" id="Wbkz6S6dnrXMHwP_VQnPo"  >
<path style="stroke: rgb(36,84,196); stroke-width: 34; stroke-dasharray: none; stroke-linecap: butt; stroke-dashoffset: 0; stroke-linejoin: miter; stroke-miterlimit: 4; fill: rgb(255,255,255); fill-opacity: 0; fill-rule: nonzero; opacity: 1;" vector-effect="non-scaling-stroke"  transform=" translate(0, 0)" d="M 109.67316 -163.44819 C 108.50901999999999 -192.55180000000001 91.62892 -242.61001000000002 0.24358999999999753 -240.28172 C -91.14174 -237.95343 -110.93220000000001 -190.80558000000002 -113.84256 -160.53783 C -116.75292 -130.27008 -121.99157000000001 -102.33061000000001 -73.67958000000002 -71.48079000000001 C -25.367590000000014 -40.630960000000016 49.71971999999998 -37.13853000000001 93.95720999999998 -9.199070000000013 C 138.19469999999998 18.740389999999987 163.80586999999997 52.06825999999999 134.12018999999998 128.75204 C 104.43450999999997 205.43581 6.646379999999979 240.36014 6.646379999999979 240.36014 C 6.646379999999979 240.36014 -91.72382000000002 206.74971 -129.55851 135.7369 C -167.3932 64.72408999999999 -132.46887 20.91892999999999 -126.06608000000001 12.769919999999985 C -119.66329000000002 4.620909999999984 -90.55968000000001 -16.915760000000017 -90.55968000000001 -16.915760000000017" stroke-linecap="round" />
</g>
<g transform="matrix(0.9110794354 0 0 0.9289433609 196.5282280163 337.0269670709)" id="ZjAsupvRvluV8OTTdSpK3"  >
<path style="stroke: rgb(36,84,196); stroke-width: 0; stroke-dasharray: none; stroke-linecap: butt; stroke-dashoffset: 0; stroke-linejoin: miter; stroke-miterlimit: 4; fill: rgb(36,84,196); fill-rule: nonzero; opacity: 1;" vector-effect="non-scaling-stroke"  transform=" translate(0, 0)" d="M -8.15169 -3.48026 C -8.15169 -3.48026 -23.86764 -9.88305 -24.449710000000003 -26.181070000000002 C -25.031780000000005 -42.47909 -15.380140000000003 -52.37432 0.9178799999999967 -51.79225 C 17.215899999999998 -51.21018 25.026429999999998 -40.73288 24.444359999999996 -26.181070000000002 C 23.862289999999994 -11.629270000000002 8.728409999999997 -3.4802600000000012 8.728409999999997 -3.4802600000000012 L 24.444359999999996 51.8166 L -22.121410000000004 51.8166 z" stroke-linecap="round" />
</g>
</svg>