<?xml version="1.0" encoding="UTF-8"?>
<svg id="Ebene_1" data-name="Ebene 1" xmlns="http://www.w3.org/2000/svg" viewBox="0 0 43 49.48">
  <path d="m42.93,23.68s.02-.07.03-.1c0-.03.02-.06.03-.09.02-.08.02-.17.01-.26.02-.27-.08-.56-.29-.77l-7.32-7.32c-.39-.39-1.02-.39-1.41,0-.39.39-.39,1.02,0,1.41l5.75,5.75h-15.25c-.55,0-1,.45-1,1s.45,1,1,1h15.12l-5.62,5.62c-.39.39-.39,1.02,0,1.41.19.19.45.29.7.29s.51-.1.7-.29l7.32-7.32s.09-.1.13-.15c.02-.02.03-.05.04-.07.02-.03.04-.06.05-.1Z"/>
  <path d="m30.59,27.58v13.57c0,.8-.63,1.45-1.4,1.45h-8.9V6.89h8.9c.77,0,1.4.65,1.4,1.45v11.29h1.21v-11.29c0-1.49-1.17-2.7-2.61-2.7h-8.9v-2.94c0-1.49-1.17-2.7-2.61-2.7,0,0-13.14,5.01-15.07,5.64s-2.61,1.21-2.61,2.7v32.81c0,1.49,1.21,2.07,2.61,2.7s15.07,5.64,15.07,5.64c1.44,0,2.61-1.21,2.61-2.7v-2.94h8.9c1.44,0,2.61-1.21,2.61-2.7v-13.57h-1.21Z"/>
</svg>