<?xml version="1.0" encoding="utf-8"?>
<!-- Generator: Adobe Illustrator 16.0.0, SVG Export Plug-In . SVG Version: 6.00 Build 0)  -->
<!DOCTYPE svg PUBLIC "-//W3C//DTD SVG 1.1//EN" "http://www.w3.org/Graphics/SVG/1.1/DTD/svg11.dtd">
<svg version="1.1" id="Ebene_1" xmlns="http://www.w3.org/2000/svg" xmlns:xlink="http://www.w3.org/1999/xlink" x="0px" y="0px"
	 width="600px" height="600px" viewBox="0 0 600 600" enable-background="new 0 0 600 600" xml:space="preserve">
<circle fill="#FFFFFF" cx="299.385" cy="299.13" r="245.105"/>
<path fill="#2454C4" d="M299.779,3.027c-163.693,0-296.396,132.7-296.396,296.395c0,163.693,132.701,296.396,296.396,296.396
	c163.693,0,296.396-132.701,296.396-296.396C596.177,135.727,463.473,3.027,299.779,3.027z M308.497,525.507l-5.482,1.858
	l-5.406-2.061c-5.846-2.229-143.13-55.837-143.13-165.307c0-65.713,47.822-81.413,49.859-82.05l34.125,16.551
	c-2.581,0.904-49.828,12.457-51.837,65.5c-2.904,76.714,93.152,122.536,116.954,132.972
	c22.743-9.317,109.358-50.198,109.358-132.195c0-46.58-43.387-62.844-104.68-80.738c-5.936-1.733-11.73-3.425-17.293-5.133
	c-50.789-15.622-108.358-33.321-108.358-97.339c0-65.437,40.959-106.085,106.889-106.085c102.346,0,119.938,48.013,121.319,82.383
	l-32.122,7.716c-1.056-26.257-11.446-57.953-89.197-57.953c-65.029,0-74.742,46.325-74.742,73.938
	c0,36.297,27.432,48.704,85.661,66.611c5.42,1.664,11.071,3.315,16.854,5.001c53.939,15.75,127.813,37.318,127.813,111.597
	C445.082,477.87,314.072,523.617,308.497,525.507z M319.498,425.659h-41.46l13.744-48.28c-8.696-2.92-14.969-11.12-14.969-20.799
	c0-12.124,9.83-21.95,21.951-21.95c12.126,0,21.952,9.826,21.952,21.95c0,9.679-6.271,17.876-14.969,20.796L319.498,425.659z"/>
</svg>
