<?xml version="1.0" encoding="utf-8"?>
<!-- Generator: Adobe Illustrator 27.5.0, SVG Export Plug-In . SVG Version: 6.00 Build 0)  -->
<svg version="1.1" id="Ebene_1" xmlns="http://www.w3.org/2000/svg" xmlns:xlink="http://www.w3.org/1999/xlink" x="0px" y="0px"
	 viewBox="0 0 35 35" style="enable-background:new 0 0 35 35;" xml:space="preserve">
<path d="M23.9,34.5h-0.4c0,0-0.1-0.1-0.1-0.1c-0.1,0-0.2,0-0.3,0c-1.4,0-2.8,0-4.2,0c-5.4,0-10.7,0-16.1,0c-1,0-2-0.8-2-2
	c0-9.9,0-19.8,0-29.7c0-0.4,0.1-0.7,0.3-1c0.4-0.8,1.1-1,2-1c9.6,0,19.3,0,28.9,0c0.2,0,0.3,0,0.4,0c1.1,0.1,1.8,1.1,1.8,2
	c0,1.5,0,3,0,4.5c0,5.2,0,10.3,0,15.5c0,0.2,0.1,0.4,0.1,0.6c0,0.2,0,0.3-0.1,0.5c-0.1,0.2-0.2,0.3-0.3,0.5
	c-2.2,2.3-4.3,4.5-6.5,6.8c-0.9,1-1.9,2-2.8,3c-0.2,0.2-0.4,0.3-0.6,0.4C23.9,34.4,23.9,34.4,23.9,34.5z M32.1,22.4V2.5
	c-0.5,0-0.9,0-1.4,0c-7.7,0-15.4,0-23.2,0c-1.5,0-3,0-4.5,0c-0.5,0-0.4-0.1-0.4,0.4c0,4.1,0,8.2,0,12.3c0,5.4,0,10.9,0,16.3
	c0,0.3,0,0.6,0,0.8h19.9v-0.2c0-2.9,0-5.7,0-8.6c0-0.7,0.4-1.1,1.1-1.1c1.7,0,3.4,0,5.1,0C29.9,22.4,31,22.4,32.1,22.4L32.1,22.4z
	 M24.6,30.9C24.6,30.9,24.7,30.9,24.6,30.9c2.1-2.1,4.2-4.3,6.3-6.5h-6.3L24.6,30.9L24.6,30.9z"/>
<path d="M17.5,8.7c2.3,0,4.5,0,6.8,0c0.3,0,0.6,0.1,0.8,0.3c0.3,0.3,0.4,0.6,0.3,1c-0.1,0.4-0.4,0.6-0.8,0.7c-0.1,0-0.3,0-0.4,0
	c-4.5,0-8.9,0-13.4,0c-0.2,0-0.3,0-0.5,0c-0.5-0.1-0.8-0.5-0.8-1.1c0-0.5,0.4-0.8,1-0.9c0.3,0,0.7,0,1,0C13.5,8.8,15.5,8.8,17.5,8.7
	L17.5,8.7L17.5,8.7z"/>
<path d="M17.5,15.6c2.2,0,4.5,0,6.8,0c0.5,0,0.9,0.2,1,0.7c0.2,0.5-0.1,1.1-0.6,1.2c-0.2,0.1-0.5,0.1-0.7,0.1c-4.4,0-8.8,0-13.2,0
	c-0.3,0-0.6-0.1-0.8-0.3c-0.3-0.3-0.4-0.7-0.3-1.1c0.1-0.4,0.5-0.6,0.9-0.7c0.1,0,0.2,0,0.3,0C13.1,15.6,15.3,15.6,17.5,15.6
	C17.5,15.6,17.5,15.6,17.5,15.6L17.5,15.6z"/>
<path d="M14,24.4c-1.1,0-2.2,0-3.4,0c-0.5,0-1-0.4-1-0.9c0-0.6,0.3-1,0.9-1.1c0.1,0,0.2,0,0.2,0c2.2,0,4.4,0,6.6,0
	c0.4,0,0.8,0.1,1,0.5c0.4,0.7-0.1,1.5-0.9,1.5C16.3,24.4,15.1,24.4,14,24.4z"/>
</svg>
