<?xml version="1.0" encoding="utf-8"?>
<!-- Generator: Adobe Illustrator 27.5.0, SVG Export Plug-In . SVG Version: 6.00 Build 0)  -->
<svg version="1.1" id="Ebene_1" xmlns="http://www.w3.org/2000/svg" xmlns:xlink="http://www.w3.org/1999/xlink" x="0px" y="0px"
	 viewBox="0 0 35 35" style="enable-background:new 0 0 35 35;" xml:space="preserve">
<path d="M17.5,2C26,2,33,9,33,17.5S26,33,17.5,33S2,26,2,17.5S9,2,17.5,2 M17.5,0C7.8,0,0,7.8,0,17.5S7.8,35,17.5,35
	S35,27.2,35,17.5S27.2,0,17.5,0L17.5,0z"/>
<path d="M13.9,16c1.6,0.1,3,0.8,3.8,2.3c0.3,0.5,0.6,1.1,0.9,1.6c0.5,0.9,1.4,1.1,2.3,0.5c1.6-1.1,3.4-1,4.8,0.4
	c1.1,1.1,2.2,2.2,3.3,3.3c0.5,0.5,0.5,1.3,0.1,1.8c-0.5,0.5-1.2,0.5-1.8-0.1c-1.1-1.1-2.1-2.1-3.2-3.2c-0.6-0.6-1.1-0.7-1.9-0.2
	c-1.9,1.3-4.4,0.8-5.6-1.2c-0.3-0.5-0.5-1.1-0.9-1.6c-0.9-1.6-2.6-1.6-3.6-0.2c-1.4,2-2.8,4-4.2,6.1c-0.2,0.3-0.5,0.6-0.9,0.6
	c-0.5,0.1-0.9-0.1-1.2-0.5s-0.3-0.9,0-1.4c0.5-0.8,1.1-1.6,1.6-2.3c0.9-1.3,1.9-2.7,2.8-4C11,16.6,12.3,16,13.9,16L13.9,16z"/>
<path d="M23.2,16.3c-2,0-3.7-1.6-3.7-3.6s1.6-3.7,3.6-3.7s3.7,1.6,3.7,3.7C27,14.6,25.3,16.3,23.2,16.3z M23.2,13.8
	c0.7,0,1.2-0.5,1.2-1.2c0-0.6-0.5-1.2-1.2-1.2c-0.7,0-1.2,0.5-1.2,1.2C22,13.3,22.5,13.8,23.2,13.8L23.2,13.8z"/>
</svg>
