<?xml version="1.0" encoding="UTF-8"?>
<svg id="Ebene_1" data-name="Ebene 1" xmlns="http://www.w3.org/2000/svg" viewBox="0 0 67.8 67.82">
  <defs>
    <style>
      .cls-1 {
        fill: #fff;
      }

      .cls-2 {
        fill: red;
      }
    </style>
  </defs>
  <path className="cls-2" d="m33.92,0c18.81.04,34.01,15.31,33.88,34.18-.14,18.52-15.15,33.64-33.91,33.64C15.08,67.82-.07,52.59,0,33.73.07,15.1,15.17.03,33.92,0Zm-.03,49.88s0-.08,0-.12c.47,0,.93,0,1.4,0,2.95-.07,5.89-.08,8.84-.22,2.2-.1,4.4-.28,6.59-.55,2.6-.33,4.38-2.03,4.94-4.58.2-.91.35-1.83.45-2.75.34-3.22.47-6.45.38-9.69-.07-2.45-.18-4.9-.57-7.32-.13-.79-.27-1.61-.57-2.35-.9-2.25-2.67-3.4-5.03-3.62-2.55-.24-5.1-.45-7.65-.54-3.62-.12-7.24-.14-10.87-.15-2.14,0-4.28.07-6.41.13-2.65.08-5.29.22-7.92.54-3.23.39-4.96,2.51-5.41,4.99-.54,2.93-.69,5.9-.74,8.87-.03,1.89.03,3.79.11,5.68.08,2,.25,4,.66,5.97.52,2.54,2,4.21,4.56,4.74,1.31.27,2.65.41,3.99.47,4.43.2,8.86.34,13.28.5Z"/>
  <path className="cls-1" d="m33.9,49.88c-4.43-.16-8.86-.3-13.28-.5-1.33-.06-2.68-.2-3.99-.47-2.56-.54-4.03-2.2-4.56-4.74-.41-1.97-.57-3.97-.66-5.97-.08-1.89-.14-3.79-.11-5.68.05-2.97.21-5.93.74-8.87.45-2.48,2.18-4.6,5.41-4.99,2.63-.32,5.27-.46,7.92-.54,2.14-.06,4.28-.14,6.41-.13,3.62.01,7.25.03,10.87.15,2.56.09,5.11.3,7.65.54,2.36.22,4.13,1.38,5.03,3.62.3.74.44,1.55.57,2.35.39,2.42.5,4.87.57,7.32.1,3.24-.03,6.47-.38,9.69-.1.92-.25,1.85-.45,2.75-.56,2.55-2.33,4.25-4.94,4.58-2.18.27-4.39.45-6.59.55-2.94.13-5.89.15-8.84.22-.46.01-.93,0-1.4,0,0,.04,0,.08,0,.12Zm7.14-16.01c-3.93-2.23-7.82-4.44-11.73-6.66v13.32c3.92-2.22,7.79-4.43,11.73-6.66Z"/>
  <path className="cls-2" d="m41.04,33.87c-3.93,2.23-7.81,4.43-11.73,6.66v-13.32c3.91,2.22,7.79,4.43,11.73,6.66Z"/>
</svg>